<?xml version="1.0" encoding="utf-8"?>
<!-- Generator: Adobe Illustrator 25.3.1, SVG Export Plug-In . SVG Version: 6.00 Build 0)  -->
<svg version="1.1" xmlns="http://www.w3.org/2000/svg" xmlns:xlink="http://www.w3.org/1999/xlink" x="0px" y="0px"
	 viewBox="0 0 300 81" style="enable-background:new 0 0 300 81;" xml:space="preserve">
<style type="text/css">
	.st0{fill:#239068;}
</style>
<g id="Layer_2">
</g>
<g id="Layer_1">
	<g>
		<path class="st0" d="M6,39.1c0.2,0.5,0.2,0.9,0.1,1.3c-0.3,1.3-1,2.4-2.2,3.1c-0.1,0.1-0.3,0.2-0.3,0.4c-0.1,2.4-0.1,4.8,0.5,7.2
			c0.3,1,0.7,1.9,1.3,2.8c0.3,0.4,0.7,0.7,1.2,0.9c0.6,0.2,1,0,1.4-0.4c0.3-0.3,0.5-0.7,0.7-1.1c0.4-1.2,0.8-2.4,1.2-3.6
			c0.3-1,0.7-2,1.2-3c0.8-1.5,1.8-2.6,3.3-3.4c0.4-0.2,0.7-0.3,1.1-0.5c0.5-0.2,0.9,0,1.2,0.4c0.2,0.3,0.4,0.6,0.6,1
			c0.3,0.5,0.5,1.1,0.8,1.7c0.3,0.6,0.7,1.2,1.1,1.8c0.6,0.8,1.5,1.2,2.5,1.4c0.4,0.1,0.9,0.1,1.3,0c0.9-0.2,1.3-0.7,1.4-1.6
			c0.2-1.7,0.5-3.3,1.1-4.9c0.2-0.5,0.5-0.9,0.7-1.4c0.1-0.2,0.2-0.3,0.4-0.5c0.7-0.7,1.5-0.7,2.2,0.1c0.5,0.6,0.8,1.3,0.9,2
			c0.5,2.7,0.1,5.1-1.8,7.1c-0.6,0.7-1.3,1.2-2.2,1.6c-0.5,0.2-0.8,0.6-0.9,1.1c-0.1,0.3-0.2,0.6-0.2,0.9c-0.4-0.3-0.4-0.8-0.6-1.2
			c-1.1,0.3-2.2,0.5-3.3,0.2c-1.1-0.3-2-0.9-2.8-1.8c-0.1,0.1-0.1,0.1-0.2,0.1c-0.7,0.9-1.5,1.9-2.2,2.8c-0.6,0.8-1.1,1.7-1.5,2.7
			c-0.8,2.1,0.9,4.5,3.2,4.4c0.3,0,0.5-0.1,0.8-0.2c1.8-0.5,3.4-1.4,4.9-2.4c1.3-0.8,2.6-1.6,3.9-2.5c2.2-1.4,4.6-2.3,7.1-2.7
			c1.8-0.3,3.7-0.7,5.5-1c1.2-0.2,2.4-0.5,3.5-1c0.4-0.2,0.7-0.3,1.1-0.6c0.5-0.4,0.7-0.8,0.5-1.4c-0.1-0.4-0.3-0.8-0.6-1.2
			c-1.2-2.2-2.6-4.3-4.3-6.2c-1.8-2.1-3.6-4.1-5.5-6.1c-1.4-1.6-2.8-3.3-4.1-5.1c-0.3-0.4-0.4-0.7-0.3-1.2c0.1-0.5,0.1-0.9,0.2-1.4
			c0.1-0.8,0.6-1.3,1.2-1.7c3-1.7,6.1-3.1,9.3-4.4c4.1-1.6,8.3-3,12.6-4.3c1-0.3,2.1-0.5,3.2-0.5c1.1,0.1,1.6,0.6,1.7,1.7
			c0,0.6-0.1,1.2-0.3,1.8c-0.3,1.1-0.8,2.2-1.4,3.2c-1.1,2-2.1,4-3.2,5.9c0,0,0,0-0.1,0.1c0.2-1.3,0.6-2.6,1.2-3.8
			c0.6-1.2,1.3-2.4,1.9-3.6c0.1-0.2,0.3-0.4,0.4-0.7c0.2-0.5,0-1-0.5-1.2c-0.6-0.2-1.2-0.1-1.8-0.1c-2.7,0.4-5.3,1.2-7.8,2.1
			c-4.8,1.7-9.5,3.6-14.1,5.7c-0.2,0.1-0.5,0.2-0.8,0.4c5.2,4.9,10.4,9.8,15.7,14.7c0.2-0.2,0.2-0.5,0.2-0.7c0-0.9-0.1-1.8-0.3-2.7
			c-0.3-1.1-0.6-2.2-0.8-3.3c-0.1-0.6-0.2-1.2-0.2-1.8c0.1-1,0.5-1.6,1.4-2c0.2-0.1,0.3-0.1,0.5-0.2C48,32,47.8,31.9,46.9,32
			c0.1-0.2,0.2-0.4,0.3-0.5c0.1-0.2,0.3-0.4,0.4-0.6c0.2-0.3,0.2-0.6,0.1-0.9c-0.3-0.9-0.7-1.7-1.7-2.1c-0.6-0.3-0.7-0.7-0.6-1.4
			c0.1-0.3,0.1-0.3,0.4-0.2c0.4,0.1,0.7,0.3,1,0.7c0.2,0.3,0.4,0.7,0.6,1.1c0.2,0.4,0.4,0.7,0.6,1.1c0.1,0.1,0.1,0.3,0.1,0.4
			c0,0.9,0.4,1.7,0.9,2.4c0.2,0.3,0.4,0.6,0.3,1c-0.1,0.4-0.2,0.5-0.6,0.5c-0.5,0.1-0.9,0.1-1.3,0.2c-0.2,0-0.3,0.1-0.4,0.1
			c-0.5,0.2-0.7,0.6-0.6,1.1c0.1,0.3,0.1,0.6,0.2,0.8c0.7,1.5,0.8,3.2,0.8,4.8c0,0.9,0.1,1.7,0.1,2.6c0,0.4,0.1,0.8,0.4,1.1
			c0.8,1.1,1.7,2.2,2.7,3.1c0.9,0.9,2,1.6,3.2,1.9c1.2,0.4,2.4,0.3,3.6-0.1c0.7-0.2,1.4-0.5,2.1-0.8c0.1-0.1,0.3-0.1,0.4-0.2
			c0.8-0.4,1.1-0.9,1-1.8c-0.1-0.7-0.2-1.5-0.2-2.2c-0.1-1-0.2-2.1-0.3-3.1c0-0.2-0.1-0.4-0.1-0.7c-0.6,0.4-1.1,0.7-1.7,1
			c-0.5,0.3-1.1,0.6-1.6,1c-0.5,0.3-1,0.7-1.6,0.9c0,0-0.1-0.1-0.1-0.1c0.1-0.1,0.2-0.2,0.3-0.3c0.5-0.4,1-0.7,1.6-1
			c0.7-0.5,1.3-0.9,1.9-1.4c0.2-0.2,0.4-0.4,0.6-0.7c0.3-0.3,0.4-0.7,0.4-1.2c-0.1-2.5-0.3-5-0.4-7.5c-0.1-2.2-0.3-4.3-0.4-6.5
			c0-0.6-0.1-1.2-0.1-1.7c0-0.3-0.1-0.6-0.2-0.9c-0.2-0.6-0.3-1.3,0-1.9c0.3-0.7,0.6-1.4,0.9-2.1c0.1,0,0.1,0,0.1,0.1
			c0.7,1.6,1.3,3.1,1.9,4.7c0.4,1,0.7,2,0.9,3c0,0.2,0.1,0.4-0.2,0.7c-0.1-0.1-0.1-0.2-0.2-0.4c-0.3-0.3-0.5-0.7-0.8-1
			c-0.1-0.1-0.2-0.3-0.4-0.2c-0.2,0.1-0.2,0.3-0.2,0.4c0,0.5,0.1,1,0.1,1.5c0.1,1.2,0.2,2.5,0.2,3.7c0.1,1.3,0.2,2.7,0.3,4
			c0.1,1,0.1,2.1,0.2,3.1c0,0.1,0,0.1,0,0.2c0.1,0.3,0.3,0.4,0.5,0.2c0.1-0.1,0.2-0.2,0.4-0.4c0.7-0.8,1.5-1.5,2.2-2.3
			c0.1-0.1,0.2-0.3,0.4-0.4c-0.2-0.2-0.4-0.3-0.6-0.5c-0.6-0.5-0.9-1.1-0.9-1.9c0.1-0.8,0.4-1.4,1.1-1.8c0.6-0.4,1.2-0.1,1.4,0.6
			c0.1,0.4,0.1,0.8,0.1,1.2c-0.1,0.9,0,1.9,0.1,2.8c0,0.1,0,0.2,0,0.4c-0.3-0.2-0.5-0.3-0.8-0.5c-0.1,0.1-0.2,0.2-0.3,0.3
			c-1,1-2,2.1-3,3.1c-0.3,0.3-0.4,0.7-0.4,1.2c0.2,1.9,0.5,3.8,0.7,5.7c0,0.3,0.1,0.5,0.1,0.8c0.4-0.1,0.8-0.2,1.1-0.2
			c0.9-0.2,1.9-0.2,2.8,0c1.2,0.4,1.9,1.2,1.9,2.5c0,1-0.1,2-0.5,3c-0.4,0.9-0.4,1.8-0.2,2.7c0.2,1,0.6,2,1.3,2.9
			c0.2,0.3,0.5,0.6,0.8,0.8c1.1,0.9,2.4,0.8,3.2-0.4c0.5-0.7,0.8-1.4,1.2-2.1c0.4-0.9,0.8-1.8,1.2-2.7c0.4-0.8,0.8-1.6,1.3-2.4
			c0.7-1.2,1.8-2,3-2.7c0.2-0.1,0.5-0.2,0.7-0.3c0.6-0.2,1.1-0.1,1.4,0.4c0.3,0.3,0.5,0.7,0.6,1.1c0.2,0.5,0.4,1.1,0.7,1.6
			c0.2,0.4,0.3,0.7,0.5,1.1c0.8,1.4,2,2,3.8,1.6c1.1-0.3,2.1-0.8,3.1-1.3c0.6-0.4,0.7-0.9,0.3-1.6c-1-1.7-2.1-3.4-3.3-4.9
			c-2-2.7-4.3-5.2-6.6-7.7c-1.4-1.6-2.9-3.1-4.3-4.7c-0.9-1-1.1-2.2-0.7-3.5c0.4-1.2,1.3-2.1,2.4-2.7c6.1-2.9,12.2-5.6,18.7-7.5
			c2.1-0.6,4.2-1.1,6.3-1.5c0.3-0.1,0.6-0.1,0.9,0c0.6,0.1,1.1,0.6,1.1,1.3c0.1,0.7-0.1,1.3-0.2,1.9c-0.4,1.3-0.9,2.6-1.5,3.8
			c-1,2-2.1,3.9-3.2,5.9c0,0.1-0.1,0.1-0.2,0.2c-0.1-0.3,0-0.5,0.1-0.6c0.3-1.1,0.8-2.1,1.3-3.1c0.5-1.1,1.1-2.1,1.6-3.2
			c0.3-0.6,0.5-1.2,0.7-1.8c0.1-0.1,0.1-0.3,0.1-0.5c-0.2-0.1-0.3-0.1-0.4-0.1c-0.9-0.1-1.8-0.1-2.6,0c-3.6,0.5-7,1.6-10.3,2.8
			c-3.8,1.4-7.5,3-11.1,4.9c-0.5,0.2-0.9,0.5-1.4,0.8c-0.1,0.1-0.3,0.2-0.4,0.3c0.1,0.2,0.2,0.3,0.4,0.4c2,1.8,3.9,3.7,5.9,5.5
			c3.1,2.8,6.2,5.5,9.1,8.4c1.5,1.5,2.9,3,4.2,4.7c0.8,0.9,1.7,1.6,2.8,1.9c1.9,0.6,4-0.4,5-1.9c0.7-1,1.4-1.8,2.2-2.6
			c0.5-0.5,1-1,1.5-1.4c0.5-0.4,1-0.7,1.6-0.7c0.4,0,0.8,0.2,1.1,0.4c0.4,0.3,0.6,0.7,0.8,1.2c0.6,1.4,0.7,2.9,0.4,4.5
			c0,0.2-0.2,0.5-0.3,0.7c-0.3,0.8-0.8,1-1.6,0.8c-0.5-0.1-1-0.3-1.5-0.4c-0.2,0-0.3-0.1-0.5-0.1c-0.2,0.4-0.1,0.8,0,1.2
			c0.2,1.2,0.6,2.3,1.3,3.3c0.3,0.4,0.6,0.8,1,1.1c0.8,0.6,1.7,0.6,2.4-0.2c0.4-0.4,0.7-0.8,0.9-1.3c0.4-0.9,0.8-1.9,1.2-2.9
			c0.4-1,0.8-1.9,1.3-2.9c0.7-1.4,1.7-2.4,3.1-3.2c0.7-0.3,1.1-0.3,1.6,0.3c0.3,0.4,0.5,0.8,0.7,1.2c0.4,0.6,0.7,1.3,1.1,1.9
			c0.3,0.5,0.7,1,1.2,1.5c1,1,2.3,1.4,3.8,1.1c0.4-0.1,0.9-0.2,1.3-0.3c0.1,0,0.2-0.1,0.3-0.1c0-0.4-0.1-0.8-0.1-1.2
			c-0.2-2.3,0.5-4.3,1.9-6.1c0.5-0.6,1.1-1.1,1.6-1.7c0.3-0.2,0.6-0.4,0.9-0.6c0.6-0.3,1.1-0.1,1.5,0.4c0.3,0.4,0.5,0.9,0.6,1.5
			c0.4,1.7,0.2,3.4-0.5,5c-0.3,0.6-0.6,1.2-0.9,1.8c-0.1,0.2-0.2,0.3-0.3,0.5c0.1,0.1,0.2,0.1,0.3,0.1c0.4,0,0.9,0.1,1.3,0.1
			c1,0,1.9,0,2.9,0c0.5,0,0.9-0.2,1.2-0.5c0.1-0.1,0.1-0.1,0.2-0.2c0.9-1.1,1.8-2.2,2.7-3.4c0.7-0.9,1-1.9,1.2-2.9c0.1-1,0.1-2,0-3
			c-0.1-1.3-0.2-2.6-0.3-3.9c-0.1-1.4-0.2-2.7-0.4-4.1c-0.1-1.3-0.2-2.7-0.3-4c-0.1-1.3-0.2-2.7-0.3-4c-0.1-1.1-0.2-2.3-0.3-3.4
			c0-0.5-0.1-1-0.2-1.4c0-0.5,0-1,0.1-1.5c0.1-0.8,0.5-1.5,0.9-2.2c0.1,0.1,0.1,0.1,0.1,0.1c0.7,1.7,1.4,3.5,2.2,5.2
			c0.2,0.5,0.3,1,0.4,1.4c0,0.1,0.1,0.2,0.1,0.3c0,0.1,0,0.2-0.1,0.3c0,0-0.2,0-0.2-0.1c-0.3-0.3-0.5-0.6-0.7-0.8
			c-0.1-0.1-0.2-0.3-0.3-0.4c0,0-0.1,0-0.1,0.1c0,0.1-0.1,0.2-0.1,0.4c0,1.1,0,2.1,0.1,3.2c0.1,1.5,0.3,3,0.4,4.5
			c0.1,1.2,0.3,2.5,0.4,3.7c0.2,2,0.3,4,0.2,6c0,1.3-0.2,2.6-0.4,3.9c0,0.1,0,0.1,0,0.2c0.2,0,0.3-0.2,0.4-0.3
			c0.9-1,1.8-1.9,2.9-2.7c0.8-0.6,1.7-1.2,2.6-1.6c1.8-0.8,3.8-0.9,5.7-0.3c2.2,0.7,3.3,2.7,3.1,4.9c-0.2,1.7-1,3.1-2,4.4
			c-0.1,0.1-0.2,0.2-0.3,0.4c0,0,0,0.1,0,0.1c0.3,0.1,0.5,0.1,0.8,0c1-0.2,1.9-0.5,2.8-1c1.6-0.8,3.1-1.9,4.5-3
			c0.1-0.1,0.3-0.2,0.4-0.3c0,0,0.1,0,0.1,0c0,0.3,0.1,0.7,0.1,1c0.3,1.3,1.3,2.2,2.6,2.3c1.9,0.1,3.4-0.6,4.5-2.3
			c0.5-0.8,1.1-1.5,1.8-2.2c0.6-0.6,1.3-1.2,1.9-1.8c0.3-0.3,0.7-0.5,1.1-0.6c0.6-0.2,1.1,0,1.6,0.4c0.4,0.3,0.6,0.7,0.8,1.2
			c0.6,1.5,0.8,3.1,0.5,4.6c0,0.3-0.2,0.5-0.3,0.8c-0.3,0.7-0.9,1-1.6,0.8c-1.3-0.3-2.6-0.7-3.7-1.5c-0.3-0.2-0.6-0.5-0.9-0.7
			c-0.1-0.1-0.2-0.2-0.4-0.3c-0.1,0.2-0.2,0.3-0.3,0.4c-0.4,0.6-0.8,1.3-1.2,1.9c-0.4,0.6-0.9,1.1-1.5,1.5c-1,0.7-2.1,0.9-3.2,0.7
			c-0.8-0.1-1.4-0.6-1.8-1.3c-0.3-0.5-0.5-1.1-0.7-1.7c0-0.2-0.1-0.3-0.1-0.5c-0.1,0.1-0.2,0.2-0.3,0.2c-1.9,2-4.2,3.1-6.8,3.8
			c-1.4,0.4-2.9,0.6-4.3,0.8c-1.6,0.2-3.1,0.3-4.7,0.5c-1.2,0.1-2.5,0.3-3.7,0.5c-0.5,0.1-1.1,0.1-1.6,0.1c-1.2,0.1-2.3,0.2-3.5,0.4
			c-1.6,0.2-3.2,0.2-4.8,0.1c-1-0.1-2-0.3-2.9-0.6c-0.3-0.1-0.6-0.1-0.9,0c-1,0.5-2.1,0.8-3.2,1c-0.9,0.2-1.8,0.2-2.7,0
			c-1.1-0.2-2.1-0.8-2.8-1.8c-0.5-0.6-0.9-1.4-1.3-2c-0.2-0.4-0.5-0.8-0.7-1.2c-0.1-0.2-0.3-0.4-0.4-0.5c-0.4-0.3-0.8-0.4-1.2-0.2
			c-0.2,0.1-0.5,0.3-0.7,0.5c-1.1,0.9-1.9,2-2.5,3.3c-0.5,1-0.9,2-1.3,3c-0.3,0.8-0.7,1.5-1.1,2.2c-0.2,0.3-0.4,0.6-0.7,0.9
			c-0.5,0.5-1.2,0.6-1.9,0.2c-0.5-0.3-0.9-0.6-1.2-1.1c-1-1.3-1.6-2.7-1.9-4.3c-0.1-0.8-0.2-1.6-0.3-2.4c-0.2-1.1-0.8-1.9-1.8-2.3
			c-0.3-0.1-0.4-0.1-0.6,0.2c-0.5,0.7-1,1.5-1.5,2.2c-0.4,0.5-0.9,0.9-1.3,1.2c-1.1,0.8-2.3,0.9-3.5,0.4c-0.7-0.3-1.3-0.7-1.9-1.1
			c-1.2-0.9-2.2-2.1-3.2-3.2c-0.9-0.9-1.7-1.9-2.6-2.8c-0.1-0.2-0.3-0.3-0.5-0.4c0,0-0.1,0-0.1,0.1c0.1,0.2,0.1,0.4,0.2,0.6
			c0.8,2.1,0.8,4.2-0.1,6.3c-0.6,1.3-1.6,2.3-3.1,2.7c-1,0.3-1.9,0.2-2.9-0.1c-0.5-0.2-1-0.4-1.5-0.6c-0.2-0.1-0.3-0.2-0.5-0.2
			c-0.1,0.1-0.1,0.1-0.1,0.2c-0.3,0.9-0.6,1.8-0.8,2.6c-0.3,0.8-0.5,1.6-0.4,2.5c0,0.2,0,0.3,0.1,0.5c0.4,0.9,1.2,1,1.9,0.3
			c0.1-0.1,0.2-0.2,0.3-0.3c0.1,0.2,0,0.4,0,0.6c-0.1,0.6-0.2,1.1-0.6,1.6c-0.6,0.8-1.5,0.7-2-0.2c-0.2-0.3-0.3-0.7-0.3-1
			c-0.1-1.4,0.1-2.7,0.6-3.9c0.2-0.5,0.4-0.9,0.6-1.3c0.1-0.4,0.3-0.8,0.4-1.3c0.1-0.5,0.1-0.9-0.1-1.4c-0.2-0.5-0.4-1-0.6-1.5
			c-0.2-0.4-0.3-0.8-0.6-1.2c-0.4-0.6-0.8-0.7-1.5-0.5c-1,0.3-1.8,0.9-2.5,1.8c-0.7,0.9-1.2,1.8-1.6,2.8c-0.5,1.1-1,2.3-1.5,3.4
			c-0.2,0.5-0.5,1-0.8,1.5c-0.2,0.3-0.5,0.6-0.7,0.9c-0.6,0.5-1.2,0.6-2,0.3c-0.3-0.2-0.7-0.4-1-0.6c-1.3-1.1-2.2-2.5-2.6-4.2
			c-0.2-0.8-0.3-1.6-0.5-2.3c0-0.1-0.1-0.2-0.1-0.4c-0.3,0-0.6,0-0.9,0.1c-1.1,0.1-2-0.3-2.7-1.1c-0.4-0.5-0.8-1.1-1.2-1.6
			c-0.2-0.2-0.3-0.5-0.5-0.8c-0.2,0.1-0.4,0.1-0.6,0.2c-1,0.4-2,0.9-3.1,1.3c-1,0.4-2.1,0.8-3.2,0.9c-1.4,0.2-2.7-0.1-3.9-1
			c-0.1-0.1-0.3-0.2-0.4-0.3c-0.1,0.1-0.1,0.1-0.1,0.2c-0.2,0.8-0.5,1.5-0.7,2.3c-0.1,0.3-0.2,0.7-0.2,1.1c0,0.3,0,0.7,0.1,1
			c0.2,0.6,0.6,0.7,1.1,0.3c0.1-0.1,0.3-0.2,0.4-0.3c0.2,0.6-0.2,1.5-0.7,1.8c-0.4,0.2-0.8,0.2-1.1-0.2c-0.2-0.3-0.4-0.6-0.4-1
			c-0.1-1,0-1.9,0.3-2.8c0.2-0.6,0.5-1.3,0.8-1.9c0.1-0.3,0.2-0.5,0-0.8c-0.2-0.4-0.4-0.7-0.7-1.1c-0.8-0.9-1.6-1.9-2.4-2.8
			c-0.6-0.7-1.3-1.5-1.9-2.2c0,0-0.1-0.1-0.2-0.2c0,0.2,0,0.3,0.1,0.4c0.3,1,0.5,2,0.5,3c0,0.5,0,0.9-0.1,1.4
			c-0.2,1.4-0.9,2.4-2.1,3.2c-1.1,0.8-2.3,1.3-3.6,1.6c-1.6,0.4-3.2,0.7-4.8,1c-1.4,0.3-2.7,0.6-4.1,0.9c-2.2,0.5-4.1,1.6-5.9,2.9
			c-0.9,0.6-1.7,1.3-2.5,1.9c-0.7,0.5-1.5,1-2.3,1.4c-0.7,0.4-1.6,0.6-2.4,0.6c-0.7,0-1.4-0.2-2-0.5c-0.6-0.4-1.2-0.8-1.7-1.4
			c-1.2-1.4-1.3-2.9-0.9-4.6c0.3-1.2,0.9-2.3,1.6-3.3c0.7-1,1.5-2,2.3-2.9c0.3-0.4,0.3-0.4,0.1-0.9c-0.2-0.5-0.4-1-0.6-1.4
			c-0.2-0.4-0.3-0.8-0.6-1.2c-0.4-0.7-1-0.8-1.7-0.5c-0.9,0.4-1.6,1-2.2,1.8c-0.8,0.9-1.3,2-1.7,3.1c-0.4,1.2-0.8,2.3-1.3,3.4
			c-0.3,0.6-0.6,1.1-1.1,1.5C7.5,57,6.8,57.1,6,56.5c-0.5-0.4-0.8-0.8-1.1-1.4c-0.8-1.4-1.3-3-1.5-4.6c-0.3-1.9-0.3-3.9-0.1-5.9
			c0-0.3,0-0.6,0.1-0.9c0-0.2,0-0.3-0.2-0.4c-1.1-0.6-1.4-1.6-1.5-2.8c0-1.5,0.3-2.9,0.8-4.3c0.6-1.7,1.3-3.3,1.9-4.9
			c0-0.1,0.1-0.1,0.1-0.2c0.1,0.2,0,0.4,0,0.6c-0.4,1.2-0.8,2.3-1.1,3.5c-0.3,1-0.6,2-0.6,3.1c0,0.4,0,0.8,0.1,1.2
			c0.1,0.6,0.5,0.9,1,1.2c0.4,0.2,0.8,0.1,1.2-0.1c0.4-0.2,0.7-0.6,0.9-1.1C5.9,39.4,5.9,39.3,6,39.1z M141.9,51.7
			c0.5,0,0.9-0.1,1.3-0.1c2-0.3,4.1-0.6,6.1-1.1c3.5-0.8,6.9-2,10.1-3.7c0.2-0.1,0.4-0.2,0.6-0.3c0-0.1,0-0.1,0-0.2
			c0-0.1-0.1-0.1-0.1-0.2c-0.6-0.8-1.2-1.5-2-2.1c-1.1-0.7-2.2-1.1-3.5-1.1c-0.9,0-1.7,0.2-2.5,0.5c-1.4,0.5-2.6,1.3-3.7,2.2
			c-2.2,1.7-4.2,3.7-6.1,5.8C142.1,51.4,142,51.5,141.9,51.7z M131.6,48.6c0.1,0.2,0.1,0.5,0.2,0.7c0.4,0.6,0.9,1.2,1.6,1.5
			c0.3,0.1,0.6,0.1,0.8-0.1c0.7-0.5,1.3-1,1.7-1.8c0.2-0.3,0.2-0.6,0.1-0.9c-0.2-0.5-0.4-1-0.6-1.5c-0.1-0.2-0.3-0.4-0.4-0.6
			c-0.4-0.4-0.7-0.4-1.1-0.1c-0.3,0.3-0.6,0.5-0.9,0.8c-0.3,0.3-0.6,0.6-0.9,1C131.7,47.9,131.6,48.2,131.6,48.6z M25.2,48.4
			c0.1,0,0.2,0,0.2,0c0.7-0.3,1.4-0.7,2-1.1c0.3-0.2,0.6-0.4,0.8-0.6c0.4-0.4,0.4-0.8,0.3-1.3c-0.2-0.6-0.5-1-1-1.4
			c-0.4-0.3-0.8-0.3-1.1,0.1c-0.2,0.3-0.4,0.6-0.6,0.9c-0.4,0.8-0.5,1.6-0.6,2.4C25.2,47.6,25.1,48,25.2,48.4z M178.4,45.1
			c-0.3,0.1-0.7,0.2-1,0.3c-0.3,0.2-0.3,0.5,0,0.7c0.7,0.3,1.5,0.6,2.2,1c0.1,0,0.3,0,0.3,0c0.1-0.1,0.1-0.3,0.1-0.4
			c-0.2-0.4-0.4-0.8-0.6-1.1C179.2,45.3,178.8,45.2,178.4,45.1z M108.7,47.9c0.8,0.3,1.6,0.7,2.4,1c0.2,0.1,0.3-0.1,0.3-0.3
			c0-0.1,0-0.2-0.1-0.3c-0.2-0.5-0.6-1-1.1-1.3C109.6,46.7,109,47,108.7,47.9z M66.2,34c0.2-0.6,0.2-1.1,0.1-1.6
			c-0.2-0.7-0.7-0.9-1.3-0.5c-0.1,0-0.1,0.1-0.2,0.1c-0.2,0.1-0.2,0.3-0.2,0.5c0.1,0.1,0.1,0.3,0.2,0.4C65.2,33.3,65.7,33.6,66.2,34
			z M67.2,50.6c0.1-0.6-0.1-1-0.6-1.3c-0.4-0.2-0.8-0.3-1.2-0.2c-0.2,0.1-0.5,0-0.7,0.2C65.3,50.3,66.2,50.8,67.2,50.6z"/>
		<path class="st0" d="M203,45c0.3,0,0.6-0.1,0.8-0.1c0.8-0.1,1.6-0.1,2.4,0.1c1.5,0.4,2.3,1.5,2.4,3c0,0.7,0,1.4-0.3,2.2
			c-0.1-0.2-0.2-0.3-0.3-0.4c-0.6-0.9-1.3-1.6-2.4-1.9c-0.6-0.2-1.3-0.1-1.9,0c-0.2,0-0.3,0.1-0.3,0.4c-0.1,3.3,2.5,4.7,4.8,4.3
			c1.2-0.2,2.2-0.8,3.1-1.7c0.2-0.2,0.4-0.5,0.5-0.8c0.3-0.6,0.6-1.1,1.1-1.6c0.8-0.7,1.6-1.5,2.4-2.2c1-0.8,2.1-0.6,2.7,0.5
			c0.1,0.2,0.2,0.3,0.3,0.5c0.2,0.5,0.3,1,0.5,1.6c0.2,0.9,0.2,1.8,0,2.7c-0.1,0.3-0.2,0.6-0.3,0.9c-0.3,0.6-1,0.9-1.6,0.6
			c-1.4-0.6-2.8-1.1-4-2c0,0-0.1-0.1-0.2-0.1c-0.1,0.2-0.2,0.3-0.3,0.5c-0.6,1-1.4,2-2.4,2.8c-0.8,0.7-1.7,1.1-2.7,1.3
			c-0.9,0.1-1.7-0.1-2.5-0.6c-0.8-0.5-1.3-1.1-1.8-1.9c-0.7-1.2-1.1-2.5-1.3-3.9c0-0.3-0.1-0.5-0.1-0.8c-0.2,0.1-0.4,0.2-0.5,0.3
			c-1.7,1.1-3.3,2.4-4.7,3.9c-1.7,1.7-3.4,3.5-5.2,5.3c-0.5,0.5-1,1-1.7,1.4c-0.9,0.5-1.9,0.7-2.9,0.3c-1.6-0.8-2.8-2-3.1-3.7
			c-0.3-1.1-0.1-2.3,0.2-3.4c0.3-1.1,0.8-2.1,1.3-3.1c0.9-1.5,1.8-3,2.6-4.5c0.5-0.8,0.9-1.6,1.3-2.4c0.2-0.4,0.2-0.6-0.1-1
			c-0.8-0.9-1.6-1.9-2.4-2.8c-0.3-0.4-0.6-0.8-0.9-1.2c-0.1-0.1-0.1-0.3-0.1-0.4c0.1-0.9,0.2-1.7,0.4-2.6c0,0,0,0,0.1-0.1
			c0.3,0.1,3.2,2.5,3.8,3.1c-0.4,0.1-0.8,0-1.2,0.1c0.1,0.4,0.4,0.6,0.7,0.8c0.2,0.3,0.5,0.6,0.8,0.8c0.2,0.3,0.5,0.5,0.8,0.8
			c0.6-0.8,1.1-1.6,1.6-2.3c0.5-0.8,1-1.5,1.5-2.3c0.5-0.8,1-1.5,1.6-2.3c0.1,0.3,0,0.6,0,0.9c-0.2,1-0.6,2-1.2,2.9
			c-0.6,0.9-1.2,1.7-1.7,2.6c-0.2,0.3-0.4,0.5-0.4,0.8c0,0.2,0.3,0.5,0.4,0.7c0.8,1.1,1.3,2.3,1.5,3.7c0.4,3.4-1.4,5.6-4,6.5
			c-0.4,0.1-0.9,0.2-1.4,0.3c-0.6,0.1-1-0.2-1.2-0.7c-0.1-0.5-0.2-0.9-0.3-1.4c-0.1-0.5-0.1-1-0.1-1.5c0-0.1-0.1-0.3-0.1-0.5
			c-0.1,0.1-0.2,0.1-0.2,0.2c-1.1,1.5-2,3.1-2.4,4.9c-0.2,0.9-0.3,1.8,0,2.7c0.3,1.1,0.9,2,2.2,2.2c0.9,0.2,1.6-0.1,2.3-0.6
			c0.9-0.7,1.8-1.4,2.6-2.1c1.4-1.4,2.7-2.8,4.1-4.2c0.7-0.7,1.4-1.4,2.2-2.1c0.5-0.4,1-0.7,1.5-1c0.4-0.3,0.8-0.5,1.2-0.8
			c0.3-0.2,0.6-0.5,0.9-0.7c0.4-0.4,0.5-0.8,0.5-1.3c-0.1-3.2-0.2-6.4-0.3-9.6c-0.1-1.9-0.1-3.9-0.3-5.8c-0.2-2.7-0.4-5.5-0.9-8.2
			c-0.1-0.6-0.1-1.1,0.1-1.7c0.1-0.5,0.3-0.9,0.5-1.4c0-0.1,0.1-0.3,0.3-0.3c0.2,0,0.2,0.2,0.2,0.3c0.2,0.9,0.4,1.8,0.5,2.7
			c0.2,1.5,0.4,3.1,0.5,4.7c0.1,1.1,0.2,2.1,0.2,3.2c0.1,2.5,0.1,4.9,0.2,7.4c0.1,1.8,0.1,3.6,0.2,5.4c0,1,0.1,2.1,0.2,3.1
			C202.9,44.5,203,44.7,203,45z M190,42.3c0,0,0,0.1-0.1,0.2c-0.7,1.3-1.4,2.6-1.8,4.1c-0.1,0.3-0.1,0.6-0.1,0.9
			c0,0.6,0.3,0.9,0.9,0.8c0.4,0,0.8-0.1,1.1-0.3c0.9-0.4,1.7-0.8,2.5-1.2c0.6-0.3,0.6-0.7,0.4-1.2c-0.2-0.4-0.5-0.7-0.8-1.1
			c-0.6-0.7-1.3-1.4-1.9-2.1C190.1,42.4,190.1,42.3,190,42.3z M217.3,49.9c-0.4-0.4-0.7-0.8-1-1.1c-0.5-0.5-0.9-0.5-1.5-0.2
			c-0.1,0.1-0.3,0.2-0.3,0.4c0,0.2,0.2,0.3,0.3,0.4c0.6,0.3,1.3,0.5,1.9,0.8C217,50.3,217,50.3,217.3,49.9z"/>
		<path class="st0" d="M71.3,53.4c0-0.1-0.1-0.2-0.1-0.3c-0.1-1.1-0.1-2.1-0.2-3.2c-0.1-1.4-0.2-2.7-0.3-4.1c-0.1-1-0.1-2.1-0.2-3.1
			c-0.1-1.5-0.2-2.9-0.3-4.4c-0.1-1.3-0.2-2.5-0.3-3.8c-0.1-1.3-0.2-2.6-0.3-4c-0.1-1.2-0.2-2.5-0.3-3.7c-0.1-1.3-0.2-2.6-0.3-4
			c0-0.5-0.1-1-0.3-1.6c-0.2-0.4-0.1-0.8,0-1.2c0.2-0.7,0.7-1.8,1.1-2.3c0,0,0.1,0,0.1,0c0.8,1.8,1.6,3.6,2.3,5.4
			c0.3,0.8,0.5,1.6,0.8,2.4c0.1,0.2,0.1,0.3-0.2,0.4c-0.1-0.2-0.3-0.3-0.4-0.5c-0.3-0.3-0.5-0.6-0.8-0.9c-0.1-0.1-0.2-0.1-0.3-0.1
			c-0.1,0-0.1,0.2-0.1,0.3c0,0.7,0,1.4,0.1,2.2c0.1,1.1,0.2,2.3,0.3,3.4c0.2,1.3,0.3,2.7,0.5,4c0.2,1.3,0.4,2.7,0.5,4
			c0.1,1.2,0.3,2.4,0.4,3.6c0.1,1.7,0.2,3.4,0,5.1c-0.1,1.7-0.4,3.3-0.9,4.9c-0.1,0.3-0.2,0.7-0.3,1c0,0.1-0.1,0.2-0.2,0.3
			C71.4,53.5,71.4,53.5,71.3,53.4z"/>
		<path class="st0" d="M219.9,17.8c0.9,2.3,1.9,4.4,2.6,6.7c0.1,0.4,0.2,0.8,0.3,1.3c0,0.2,0.1,0.3-0.1,0.5
			c-0.1-0.1-0.2-0.1-0.2-0.2c-0.3-0.4-0.6-0.8-0.9-1.1c-0.1-0.1-0.2-0.2-0.3-0.1c-0.1,0-0.2,0.2-0.2,0.3c0,0.9,0,1.8,0.1,2.7
			c0.2,1.8,0.4,3.6,0.6,5.4c0.2,1.5,0.4,3,0.6,4.6c0.2,1.3,0.3,2.7,0.4,4.1c0.2,1.8,0.2,3.7,0.2,5.5c-0.1,1.9-0.3,3.7-1.1,5.5
			c-0.1,0.1-0.1,0.3-0.3,0.5c0-0.2,0-0.3-0.1-0.4c-0.1-1.8-0.1-3.7-0.2-5.5c-0.1-2-0.3-4.1-0.4-6.1c-0.2-1.9-0.3-3.9-0.5-5.8
			c-0.2-1.7-0.4-3.4-0.5-5.1c-0.2-1.6-0.3-3.2-0.5-4.8c-0.1-1.2-0.2-2.5-0.4-3.7c-0.1-0.6,0-1.2,0.1-1.9c0.1-0.4,0.2-0.7,0.3-1.1
			C219.6,18.5,219.7,18.2,219.9,17.8z"/>
		<path class="st0" d="M13.8,30.2c0-0.6,0.3-0.9,0.6-1.2c0.2-0.2,0.5-0.3,0.8-0.5c7.8-3.5,15.6-7.1,23.6-10.2
			c0.4-0.1,0.8-0.3,1.1-0.4c0,0,0.1,0,0.1,0c-0.1,0.6-0.5,1-1.1,1.3c-0.8,0.4-1.7,0.7-2.5,1.1c-5,2.2-10,4.3-15,6.5
			c-2.4,1-4.8,2.2-7.1,3.2C14.1,30,14,30.1,13.8,30.2z"/>
		<path class="st0" d="M158.2,32.6c0.1-0.7,0.4-1.3,0.9-1.6c0.2-0.1,0.4-0.3,0.6-0.4c6.3-3.3,12.7-6.3,19.1-9.3
			c0.1-0.1,0.3-0.1,0.5-0.2c-0.1,0.7-0.4,1.1-0.8,1.4c-0.3,0.2-0.6,0.3-0.9,0.5c-4.1,2-8.3,4-12.4,6c-2.2,1.1-4.4,2.2-6.6,3.3
			C158.6,32.5,158.5,32.5,158.2,32.6z"/>
		<path class="st0" d="M116,28.2c-0.1,0.7-0.4,1.2-1,1.5c-0.4,0.2-0.9,0.5-1.3,0.7c-2.6,1.3-5.2,2.6-7.8,4c-0.4,0.2-0.6,0.5-0.8,0.9
			c-0.1,0.3-0.2,0.6-0.3,0.9c-0.1,0.4-0.2,0.8-0.4,1.2c-0.3,0.8-0.3,1.6,0,2.3c0.1,0.2,0.2,0.4,0.3,0.6c0.4-0.2,0.7-0.3,1.1-0.5
			c0.1,0.6-0.2,1.4-0.7,1.7c-0.4,0.2-0.8,0.2-1.1-0.1c-0.4-0.4-0.5-1-0.4-1.6c0-0.8,0.2-1.5,0.5-2.2c0.3-0.7,0.5-1.3,0.7-2
			c0.1-0.2,0.1-0.3,0.1-0.5c-2.2,1.1-4.2,2.3-6.5,3.5c0.1-0.2,0.1-0.3,0.1-0.4c0.2-0.3,0.4-0.6,0.7-0.8c0.8-0.6,1.5-1.2,2.4-1.7
			c2.6-1.6,5.3-2.9,8-4.2c2-1,4.1-2,6.1-3C115.9,28.3,115.9,28.3,116,28.2z"/>
		<path class="st0" d="M161.7,24.2c1-0.4,1.9-0.8,2.9-1.3c0.6-0.3,1.3-0.6,1.9-0.8c0.1,0,0.2-0.1,0.3-0.1c0.1-0.1,0.1-0.2,0.1-0.3
			c0-0.1-0.1-0.2-0.2-0.2c-0.3-0.1-0.5-0.1-0.8-0.2c-0.9-0.1-1.8-0.2-2.8,0c-0.5,0.1-1,0.1-1.6,0.2c0.4-0.8,0.7-1.5,1.1-2.2
			c0.3-0.4,0.7-0.7,1.2-0.7c0.8,0,1.6-0.1,2.4-0.1c1,0,1.9,0.3,2.8,0.7c0,0.5-0.2,1-0.4,1.4c-0.7,1.6-2,2.6-3.6,3.2
			C164.1,24.1,162.9,24.3,161.7,24.2z"/>
		<path class="st0" d="M122.6,33c0.2-0.9,0.6-1.5,1.3-1.8c0.6-0.3,1.2-0.6,1.9-0.9c3.2-1.6,6.4-3.1,9.6-4.7c1.6-0.7,3.2-1.4,4.7-2.1
			c0.1,0,0.2-0.1,0.4-0.1c0,0.1,0,0.2,0,0.3c-0.2,0.6-0.7,1-1.2,1.3c-1.6,0.7-3.1,1.5-4.7,2.2c-3.8,1.9-7.7,3.7-11.5,5.6
			C122.9,32.9,122.8,32.9,122.6,33z"/>
		<path class="st0" d="M78.7,41.6c0.7-0.8,1.3-1.5,2-2.3c0.9,0.7,1.7,1.3,2.6,2c-0.6,0.8-1.2,1.6-1.8,2.5
			C80.5,43.1,79.6,42.4,78.7,41.6c-0.6,0.9-1.2,1.6-1.8,2.5c-0.9-0.7-1.8-1.4-2.7-2.1c0.6-0.8,1.2-1.5,1.9-2.4
			C76.9,40.3,77.8,40.9,78.7,41.6z"/>
		<path class="st0" d="M10.5,36.8c-0.6,0.8-1.2,1.6-1.9,2.4c-0.9-0.7-1.8-1.4-2.6-2.1c0.6-0.8,1.2-1.6,1.8-2.4
			C8.7,35.5,9.5,36.1,10.5,36.8c0.6-0.8,1.2-1.6,1.9-2.4c0.7,0.5,1.4,1,2,1.5c0.4,0.3,0.4,0.6,0.2,1.1c-0.1,0.2-0.3,0.5-0.5,0.7
			c-0.3,0.4-0.6,0.7-0.9,1.1C12.3,38.2,11.4,37.6,10.5,36.8z"/>
		<path class="st0" d="M194.7,29.5c-0.9-0.6-1.7-1.2-2.6-1.9c-0.6,0.7-1.2,1.4-1.8,2.2c-0.9-0.7-1.7-1.3-2.6-2
			c0.6-0.8,1.2-1.5,1.8-2.3c0.9,0.7,1.7,1.3,2.6,2c0.6-0.7,1.1-1.4,1.7-2.2c0.9,0.6,1.7,1.3,2.5,1.9
			C196.3,27.5,195.3,28.9,194.7,29.5z"/>
		<path class="st0" d="M153.2,34.9c-0.1-0.6-0.3-1.2-0.4-1.8c-0.4-1.8-0.8-3.6-1.2-5.4c-0.2-1.1,0.2-1.9,1.1-2.5
			c0.3-0.2,0.5-0.3,0.8-0.5c-0.2-0.6-0.4-0.7-1.2-0.5c0.2-0.3,0.4-0.7,0.7-0.9c0.3-0.3,0.3-0.7,0.2-1.1c-0.2-0.4-0.4-0.9-0.6-1.3
			c-0.2-0.3-0.4-0.6-0.8-0.7c-0.3-0.1-0.6-0.4-0.8-0.7c-0.3-0.5-0.3-0.6,0.1-1c0.5,0.1,0.9,0.3,1.2,0.8c0.2,0.3,0.3,0.6,0.5,0.9
			c0.2,0.4,0.5,0.9,0.7,1.3c0,0.1,0.1,0.2,0.1,0.3c0,1,0.3,1.8,1,2.6c0.3,0.3,0.4,0.7,0.3,1.1c-0.1,0.3-0.2,0.4-0.6,0.4
			c-0.6,0-1.2,0.1-1.7,0.3c-0.6,0.2-0.8,0.6-0.7,1.2c0,0.3,0.1,0.6,0.2,0.8c0.2,0.8,0.5,1.6,0.7,2.4
			C153.2,31.9,153.4,33.4,153.2,34.9z"/>
		<path class="st0" d="M120.8,23.4c0-0.5,0-1,0.1-1.5c0.1-0.8,0.2-1.6,0.3-2.5c0.1-0.5,0.3-1,0.6-1.4c0.5-0.6,1-0.5,1.3,0.1
			c0.1,0.2,0.2,0.4,0.2,0.6c0,0.5,0.1,0.9,0.1,1.4c-0.2,0.1-0.3,0-0.4-0.1c-0.3-0.3-0.6-0.7-0.9-1c-0.1,0.1-0.2,0.2-0.3,0.3
			c-0.4,0.6-0.6,1.3-0.6,1.9c-0.1,0.9-0.1,1.8-0.2,2.8c0,0.5-0.1,1-0.2,1.5c0,0.1-0.1,0.2-0.2,0.3c-0.6-1.4-1.2-2.9-1.8-4.3
			c-0.4,0.3-0.7,0.1-1-0.1c-0.4-0.2-0.8-0.3-1-0.7c-0.3-0.4-0.1-1.3,0.2-1.6c0.2-0.2,0.6-0.3,0.9-0.1c0.3,0.2,0.5,0.4,0.7,0.7
			c0.5,0.7,0.9,1.4,1.3,2.2c0.2,0.4,0.4,0.8,0.6,1.3c0.1,0.1,0.2,0.3,0.2,0.4C120.7,23.4,120.7,23.4,120.8,23.4z"/>
		<path class="st0" d="M15.4,36.1c-0.1-0.4,0.1-0.7,0.4-1c0.2-0.1,0.3-0.3,0.5-0.4c3.4-1.6,6.8-3.1,10.2-4.7
			c0.6-0.3,1.2-0.5,1.8-0.7c0.2-0.1,0.3-0.1,0.4,0.1c-0.2,0.1-0.3,0.3-0.5,0.4c-1.6,1.1-3.3,2-5.1,2.7c-1.8,0.8-3.7,1.5-5.5,2.3
			c-0.6,0.3-1.2,0.6-1.9,0.9C15.7,36,15.6,36,15.4,36.1z"/>
		<path class="st0" d="M10.2,23.9c-0.4-0.1-0.7-0.2-1.1-0.3c0.2-0.3,0.3-0.5,0.5-0.8c0.3-0.4,0.4-0.7,0.1-1.2
			c-0.2-0.5-0.4-0.9-0.6-1.4C9,20,8.8,19.8,8.4,19.7c-0.4-0.1-0.6-0.3-0.7-0.6c-0.1-0.3,0.1-0.6,0.3-0.8c0.2-0.1,0.3-0.1,0.4,0
			c0.2,0.2,0.4,0.3,0.5,0.5c0.3,0.5,0.6,0.9,0.8,1.4c0.1,0.2,0.2,0.5,0.4,0.7c0.2,0.2,0.2,0.4,0.2,0.6c0,0.4,0.1,0.8,0.2,1.1
			c0.1,0.3,0.4,0.7,0.5,1c0,0.1,0.1,0.1,0.2,0.2c0.4,0.6,0.2,1.1-0.5,1.3c-0.4,0.1-0.7,0.1-1.1,0.2c-0.7,0.1-1,0.4-0.9,1.1
			c0.1,0.5,0.2,1,0.3,1.5C9.3,29,9.6,30,9.8,31c0.2,0.8,0.2,1.7,0.1,2.5c0,0.1,0,0.1-0.1,0.2c-0.1-0.5-0.2-1-0.3-1.5
			c-0.4-1.7-0.8-3.4-1.1-5c-0.2-1,0-1.8,0.8-2.4c0.2-0.2,0.5-0.4,0.7-0.5C10,24.2,10.1,24.1,10.2,23.9z"/>
		<path class="st0" d="M18.9,41c0.3-0.5,0.6-1,1.1-1.3c3.9-1.8,7.8-3.7,11.8-5.3c0.1-0.1,0.3-0.1,0.5-0.2c0,0.1,0.1,0.2,0,0.3
			c-0.3,0.4-0.5,0.8-1,1c-4,1.8-8,3.5-12,5.3C19.2,40.9,19.1,41,18.9,41z"/>
		<path class="st0" d="M217.1,20.8c-0.1,0.6-0.4,0.9-0.9,1.1c-0.7,0.3-1.4,0.6-2.1,0.9c-3.5,1.5-7,2.9-10.5,4.4
			c-0.1,0-0.1,0-0.2,0.1c-0.1-0.4,0.1-0.6,0.3-0.8c0.3-0.2,0.6-0.4,0.9-0.5c1.4-0.6,2.9-1.2,4.3-1.8c2.6-1,5.1-2.1,7.7-3.1
			C216.7,20.9,216.9,20.9,217.1,20.8z"/>
		<path class="st0" d="M74.7,24.5c0.4-0.6,0.9-1.1,1.6-1.4c2.8-1.2,5.5-2.5,8.2-3.7c1.1-0.5,2.1-0.9,3.2-1.3
			c0.1-0.1,0.3-0.1,0.5-0.2c0,0.4-0.1,0.6-0.4,0.8c-0.2,0.1-0.4,0.3-0.7,0.4c-2.9,1.3-5.9,2.6-8.8,3.9c-1.1,0.5-2.1,1-3.2,1.5
			C75,24.6,74.9,24.7,74.7,24.5z"/>
		<path class="st0" d="M156.6,57.5c-0.1,0.1-0.3,0.2-0.4,0.3c-1.4,1-3,1.8-4.6,2.5c-1.9,0.8-3.8,1.6-5.7,2.4
			c-0.8,0.3-1.5,0.8-2.3,1.1c-0.1,0.1-0.3,0.1-0.4,0.2c0-0.5,0.5-1.1,1-1.3c1.5-0.7,3-1.4,4.4-2c2.5-1.1,5-2.2,7.5-3.3
			c0.2-0.1,0.3-0.1,0.5-0.2C156.5,57.4,156.6,57.5,156.6,57.5z"/>
		<path class="st0" d="M187.2,21.8c-0.3-0.3-0.5-0.5-0.7-0.8c-0.7-0.9-0.6-2,0.2-2.7c0,0,0.1-0.1,0.1-0.1c0.3-0.2,0.7-0.4,1.1-0.2
			c0.4,0.2,0.5,0.6,0.5,1c0,0.4,0,0.8-0.1,1.3c-0.1,0.6-0.1,1.3,0.2,1.9c0.1,0.1,0,0.3,0.1,0.4c0,0-0.1,0-0.1,0.1
			c-0.3-0.2-0.5-0.4-0.9-0.6c-1.1,1.5-2.3,2.9-3.8,4c-1.5,1.1-3,2.1-4.7,2.9c0.1-0.1,0.2-0.2,0.3-0.2c1.7-1.3,3.4-2.6,5-3.9
			c1-0.8,1.8-1.7,2.6-2.6C187,22,187.1,21.9,187.2,21.8z M187.7,20.8c0.4-0.5,0.5-1.1,0.2-1.6c-0.3-0.4-0.7-0.5-1.1-0.2
			c-0.2,0.2-0.4,0.4-0.5,0.5C186.5,19.9,187.4,20.6,187.7,20.8z"/>
		<path class="st0" d="M218.2,28.8c-0.3,0.5-0.7,0.8-1.2,1.1c-4.1,1.7-8.3,3.4-12.4,4.9c0,0-0.1,0-0.1,0c0.2-0.4,0.5-0.7,0.9-0.9
			c1.5-0.6,2.9-1.3,4.4-1.9c2.6-1.1,5.2-2.1,7.8-3.2c0.1,0,0.2-0.1,0.4-0.1C218,28.7,218.1,28.8,218.2,28.8z"/>
		<path class="st0" d="M32.9,43.4C33,43.7,33,44,33,44.3c0,0.5,0,0.9,0,1.4c0,0.2,0.1,0.3,0.1,0.5c0.2,0.5,0.5,0.7,1.1,0.7
			c0.5,0,0.9-0.3,1-0.8c0.1-0.4,0.1-0.8,0-1.2c-0.1-0.7-0.2-1.3-0.2-2c0-0.2-0.1-0.5,0.2-0.5c0.2,0,0.2,0.3,0.2,0.5
			c0.1,0.6,0.2,1.2,0.3,1.8c0,0.3,0.1,0.5,0.2,0.8c0.3,0.9,1.3,1,1.9,0.5c-0.1-0.2-0.1-0.4-0.2-0.6c-0.2-0.4-0.3-0.8-0.5-1.2
			c-0.2-0.5-0.3-0.9-0.2-1.4c0-0.1,0.1-0.2,0.2-0.4c0.1,0.1,0.1,0.2,0.2,0.2c0.3,0.9,0.6,1.9,0.8,2.8c0.1,0.6,0,1.1-0.4,1.5
			c-0.4,0.5-1,0.6-1.5,0.2c-0.2-0.1-0.3-0.3-0.4-0.5c-0.1-0.1-0.1-0.2-0.3-0.3c-0.1,0.2-0.2,0.3-0.2,0.4c-0.2,0.4-0.5,0.8-0.9,1.1
			c-0.6,0.4-1.2,0.3-1.5-0.4c-0.2-0.4-0.3-0.9-0.3-1.3c-0.1-0.8,0-1.5,0-2.3c0-0.1,0.1-0.3,0.1-0.4C32.8,43.4,32.8,43.4,32.9,43.4z"
			/>
		<path class="st0" d="M49.4,62.9c0.1-0.1,0.3-0.2,0.4-0.3c1.2-0.7,2.3-1.4,3.5-2.1c1-0.6,2-1.3,3-2.1c1-0.8,1.8-1.8,2.4-3
			c0.2-0.4,0.5-0.7,0.8-1c0.3-0.3,0.8-0.4,1.2-0.2c0.4,0.2,0.6,0.6,0.6,1.1c0,0.5-0.1,1-0.5,1.4c-0.7-0.3-1.5-0.6-2.2-0.9
			c-0.1,0.1-0.1,0.2-0.2,0.3c-0.5,1.4-1.4,2.4-2.5,3.3c-0.9,0.7-1.8,1.2-2.8,1.7c-1.1,0.6-2.3,1.1-3.4,1.7
			C49.6,63,49.5,63,49.4,62.9C49.4,63,49.4,63,49.4,62.9z"/>
		<path class="st0" d="M97.3,56.9c-0.1,0.1-0.1,0.2-0.2,0.3c-1,2.1-2.6,3.6-4.6,4.7c-1.2,0.7-2.4,1.2-3.7,1.6
			c0.1-0.1,0.2-0.1,0.3-0.2c1.5-0.9,3-1.8,4.4-2.8c0.7-0.4,1.2-0.9,1.8-1.4c0.2-0.2,0.4-0.5,0.6-0.7c0.4-0.6,0.8-1.1,1.2-1.7
			c0.3-0.4,0.6-0.7,0.9-1.1c0.2-0.2,0.4-0.3,0.6-0.5c0.3-0.2,0.5-0.1,0.7,0.2c0.3,0.5,0.5,1,0.5,1.5c0,0.5-0.3,0.8-0.8,0.8
			c-0.5,0-1-0.2-1.4-0.4C97.7,57.1,97.5,57,97.3,56.9z"/>
		<path class="st0" d="M197.6,54.7c0.2,0,0.3,0.2,0.3,0.3c0,0.3-0.1,0.6-0.2,0.8c-0.2,0.6-0.4,1.3-0.7,1.9c-0.2,0.7-0.5,1.3-0.4,2.1
			c0,0.7,0.4,1.3,1,1.7c0.4-0.2,0.7-0.7,1.1-1c0,0.2,0,0.3,0,0.4c-0.1,0.8-0.3,1.5-0.8,2.1c-0.1,0.1-0.3,0.3-0.4,0.4
			c-0.4,0.3-0.8,0.3-1.1,0c-0.5-0.4-0.6-1-0.6-1.5c0-0.8,0.1-1.5,0.3-2.2c0.4-1.3,0.8-2.5,1.2-3.8C197.4,55.4,197.5,55.1,197.6,54.7
			z"/>
		<path class="st0" d="M117.3,40.7c-0.8-0.6-1.6-1.2-2.4-1.8c0.5-0.7,1.1-1.4,1.6-2.2c0.9,0.6,1.7,1.2,2.5,1.8
			C118.7,39,117.6,40.5,117.3,40.7z"/>
		<path class="st0" d="M129.7,37.2c0.5-0.7,1-1.4,1.6-2.2c0.9,0.6,1.7,1.2,2.5,1.9c-0.5,0.7-1,1.4-1.6,2.2
			C131.4,38.5,130.6,37.9,129.7,37.2z"/>
		<path class="st0" d="M138.1,36.7c-0.6,0.7-1.1,1.4-1.6,2.1c-0.9-0.6-1.7-1.2-2.5-1.9c0.5-0.7,1-1.4,1.6-2.2
			C136.4,35.4,137.3,36,138.1,36.7z"/>
		<path class="st0" d="M119.1,38.5c0.6-0.7,1.1-1.4,1.6-2.2c0.9,0.6,1.7,1.2,2.5,1.9c-0.5,0.7-1.1,1.4-1.6,2.1
			C120.8,39.8,120,39.2,119.1,38.5z"/>
		<path class="st0" d="M166.2,37.2c0.9,0.6,1.7,1.2,2.5,1.9c-0.5,0.7-1,1.4-1.6,2.2c-0.9-0.6-1.7-1.2-2.5-1.9
			C165.2,38.7,165.7,38,166.2,37.2z"/>
		<path class="st0" d="M124.1,59.8c0,0.8-0.1,1.6-0.6,2.3c-0.6,0.8-1.5,0.7-2-0.2c-0.3-0.7-0.4-1.4-0.3-2.1c0.2-1.9,0.9-3.7,1.7-5.5
			c0-0.1,0.1-0.1,0.1-0.2c0.2,0,0.2,0.2,0.2,0.3c-0.1,0.3-0.2,0.7-0.3,1c-0.4,1.1-0.8,2.1-0.9,3.3c-0.1,0.5-0.1,0.9,0.1,1.3
			c0.1,0.4,0.4,0.6,0.8,0.7c0.4,0.1,0.7,0,0.9-0.4c0.1-0.2,0.2-0.4,0.3-0.6C124.1,59.7,124.1,59.8,124.1,59.8z"/>
		<path class="st0" d="M214.2,57.4c-0.1,0.1-0.2,0.2-0.2,0.3c-0.8,1.6-2.1,2.8-3.7,3.6c-1.1,0.6-2.2,1-3.5,1.3
			c0.1-0.1,0.2-0.2,0.4-0.2c0.9-0.5,1.8-1.1,2.7-1.6c0.8-0.5,1.6-1,2.4-1.5c0.3-0.2,0.5-0.5,0.7-0.7c0.5-0.6,0.9-1.1,1.3-1.7
			c0.2-0.3,0.5-0.6,0.8-0.8c0.5-0.4,0.9-0.2,1.1,0.3c0.1,0.3,0.2,0.7,0.2,1.1c0,0.4-0.3,0.7-0.8,0.6c-0.4-0.1-0.7-0.2-1-0.4
			C214.6,57.6,214.4,57.5,214.2,57.4z"/>
		<path class="st0" d="M165.7,59.5C165.8,59.6,165.8,59.6,165.7,59.5c0.1,1.1-0.2,2-0.9,2.7c-0.4,0.4-0.9,0.4-1.3,0.1
			c-0.4-0.4-0.7-0.8-0.7-1.4c-0.1-1.3,0.2-2.6,0.6-3.8c0.3-0.9,0.7-1.8,1-2.7c0-0.1,0.1-0.2,0.1-0.2c0.2,0.1,0.2,0.2,0.1,0.4
			c-0.2,0.6-0.4,1.3-0.6,1.9c-0.3,0.8-0.5,1.7-0.7,2.5c-0.1,0.7,0.1,1.2,0.6,1.6c0.4,0.4,0.9,0.4,1.2-0.1c0.1-0.2,0.2-0.4,0.3-0.5
			C165.6,59.8,165.7,59.7,165.7,59.5z"/>
		<path class="st0" d="M215.3,39.6c0-0.2,0-0.3,0-0.5c0-0.7,0-1.4,0.2-2.1c0.1-0.6,0.4-1.1,1.1-1.5c0.3,0.6,0.8,1.1,0.5,1.9
			c-0.3-0.4-0.6-0.7-0.9-1.1c-0.2,0.3-0.3,0.5-0.4,0.7c-0.3,0.7-0.3,1.4-0.4,2.1c0,0.6-0.1,1.2-0.2,1.8c0,0.2-0.1,0.3-0.2,0.6
			c-0.1-0.2-0.2-0.3-0.2-0.3c-0.3-0.6-0.6-1.3-0.8-1.9c-0.1-0.4-0.4-0.6-0.7-0.8c-0.3-0.1-0.5-0.3-0.8-0.4c-0.5-0.3-0.6-0.9-0.2-1.4
			c0.1-0.2,0.3-0.1,0.4-0.1c0.4,0.1,0.7,0.3,1,0.6c0.2,0.3,0.4,0.7,0.7,1.1c0.2,0.3,0.3,0.7,0.5,1c0.1,0.1,0.2,0.3,0.3,0.4
			C215.2,39.6,215.2,39.6,215.3,39.6z"/>
		<path class="st0" d="M65.6,61.2c0,0.2,0.1,0.3,0.1,0.4c-0.1,0.7-0.5,1.2-1.2,1.5c-0.4,0.2-0.7,0.1-0.9-0.3
			C63.2,62.5,63,62,63,61.5c0-0.5,0-1,0.1-1.4c0.2-0.8,0.3-1.6,0.5-2.5c0.1-0.3,0.2-0.6,0.3-0.9c0.1-0.2,0.3-0.4,0.6-0.5
			c0.2,0.2,0.1,0.5,0,0.7c-0.1,0.3-0.3,0.7-0.4,1c-0.4,0.9-0.6,1.9-0.4,2.9c0,0.1,0,0.1,0,0.2c0.2,0.7,0.6,0.9,1.3,0.6
			C65.2,61.5,65.4,61.4,65.6,61.2z"/>
		<path class="st0" d="M176.3,36.9c0.1,0.6,0,1.1-0.4,1.6c-0.3,0.4-0.7,0.6-1.1,0.5c-0.4-0.1-0.7-0.4-0.8-0.8
			c-0.2-0.6-0.2-1.3-0.1-1.9c0.2-1.5,0.8-3,1.5-4.3c0-0.1,0.1-0.1,0.1-0.2c0.1,0.2,0,0.3,0,0.5c-0.2,0.8-0.5,1.6-0.7,2.4
			c-0.1,0.5-0.2,0.9-0.3,1.4c0,0.3,0,0.6,0,0.8c0.1,0.4,0.4,0.5,0.7,0.4C175.6,37.3,175.9,37.1,176.3,36.9z"/>
		<path class="st0" d="M225.2,59.1c-0.2,0.4-0.5,0.7-0.9,0.9c-2,0.9-4.1,1.9-6.1,2.8c-0.1,0-0.1,0-0.3,0.1c0.1-0.2,0.1-0.3,0.2-0.3
			c0.5-0.5,1-1,1.7-1.3c0.9-0.4,1.7-0.8,2.6-1.2c0.8-0.3,1.5-0.7,2.3-1c0.1-0.1,0.3-0.1,0.5-0.1C225.2,59,225.2,59,225.2,59.1z"/>
		<path class="st0" d="M110.8,17.5c0.1,0.2,0,0.4,0,0.5c-0.3,1-0.6,1.9-0.8,2.9c-0.1,0.3-0.1,0.7-0.1,1c0,0.5,0.4,0.7,0.8,0.6
			c0.2,0,0.3-0.1,0.5-0.2c0.2-0.1,0.3-0.2,0.5-0.3c-0.2,0.8-0.4,1.4-0.9,1.9c-0.3,0.2-0.6,0.2-0.9,0c-0.4-0.3-0.6-0.7-0.6-1.2
			c-0.1-0.8,0.1-1.6,0.3-2.3c0.3-0.9,0.6-1.8,0.9-2.8C110.6,17.7,110.7,17.6,110.8,17.5z"/>
		<path class="st0" d="M130.6,17.6c0,0.2-0.1,0.3-0.1,0.5c-0.2,0.8-0.5,1.7-0.7,2.5c-0.1,0.4-0.2,0.9-0.2,1.3c0,0.7,0.4,0.9,1,0.6
			c0.3-0.1,0.5-0.3,0.9-0.4c-0.1,0.6-0.3,1.1-0.7,1.6c-0.4,0.5-0.8,0.5-1.3,0.1c-0.3-0.3-0.4-0.6-0.4-1c0-0.6,0.1-1.3,0.2-1.9
			c0.3-1,0.7-2.1,1-3.1C130.4,17.7,130.5,17.6,130.6,17.6C130.6,17.6,130.6,17.6,130.6,17.6z"/>
		<path class="st0" d="M222.4,54.5c0.1,0.3,0.1,0.5,0.2,0.8c-0.4,0-0.8,0-1.2-0.1c0.2,0.8,0.8,1.1,1.5,0.9c0.2-0.1,0.5-0.2,0.7-0.3
			c0.1,0.2,0,0.4-0.1,0.6c-0.1,0.1-0.3,0.3-0.5,0.4c-0.5,0.3-1.1,0.7-1.6,1c-0.1,0-0.1,0.1-0.3,0.1c0.2-0.4,0.3-0.6,0.4-0.9
			c-0.1-0.1-0.3-0.3-0.4-0.4c-0.6-0.6-0.5-1.2,0.2-1.7C221.6,54.7,222,54.5,222.4,54.5z"/>
		<path class="st0" d="M136.3,62.8c0-0.2,0.1-0.3,0.1-0.5c0.2-0.6,0.4-1.2,0.6-1.8c0.1-0.5,0.1-1.1-0.1-1.6
			c-0.2-0.4-0.2-0.5-0.7-0.3c-0.2,0.1-0.4,0.1-0.6,0.2c0-0.5,0.1-1,0.4-1.3c0.5-0.5,1.2-0.4,1.5,0.3c0.1,0.3,0.2,0.7,0.1,1.1
			c-0.3,1.3-0.7,2.6-1.1,3.9c0,0-0.1,0.1-0.1,0.1C136.4,62.8,136.4,62.8,136.3,62.8z"/>
		<path class="st0" d="M33.1,61.9c0,0.6-0.3,1.1-0.7,1.3c-0.5,0.2-1,0-1-0.5c-0.1-0.3-0.1-0.7,0-1c0.2-0.8,0.4-1.7,0.6-2.5
			c0.1-0.3,0.2-0.5,0.3-0.8c0.1-0.2,0.1-0.3,0.4-0.4c0,0.2,0,0.4-0.1,0.5c-0.1,0.4-0.3,0.8-0.5,1.2c-0.2,0.5-0.4,1-0.2,1.6
			c0,0.2,0.1,0.3,0.1,0.4c0.2,0.3,0.4,0.4,0.7,0.3C32.8,62,33,61.9,33.1,61.9z"/>
		<path class="st0" d="M19.9,21.8c-0.1,0.3-0.1,0.6-0.2,0.8c-0.2,0.5-0.7,0.6-1.1,0.3c-0.2-0.2-0.3-0.4-0.3-0.6c0-0.3,0-0.7,0-1
			c0.1-0.6,0.3-1.1,0.6-1.7c-0.1,0.4-0.1,0.8-0.2,1.3c0,0.2,0,0.4,0,0.6c0.1,0.4,0.3,0.5,0.7,0.5C19.4,22,19.6,21.9,19.9,21.8z"/>
		<path class="st0" d="M94.4,33.3c0,0.2,0,0.3-0.1,0.5c-0.1,0.5-0.4,0.7-0.8,0.7c-0.4,0-0.8-0.3-0.8-0.8c0-0.3,0-0.7,0-1
			c0.2-0.7,0.4-1.4,0.6-2.1c-0.1,0.6-0.2,1.1-0.3,1.7c0,0.2,0,0.4,0,0.6c0.1,0.5,0.4,0.7,0.9,0.6C94.1,33.4,94.2,33.3,94.4,33.3z"/>
		<path class="st0" d="M49,26c-0.3,0.7-0.5,1.4-0.7,2.1c0.1-0.6,0.1-1.2,0.3-1.8c0-0.2,0.2-0.5,0.4-0.7c0.1-0.2,0.4-0.3,0.6-0.2
			c0.3,0.1,0.4,0.3,0.4,0.5c0,0.3,0.1,0.6-0.2,1C49.5,26.6,49.3,26.3,49,26z"/>
		<path class="st0" d="M154.3,18.2c-0.2,0.6-0.3,1.1-0.5,1.7c0-0.9,0.1-1.8,0.9-2.3c0.6,0.5,0.8,1.1,0.5,1.7
			c-0.2-0.2-0.3-0.4-0.4-0.5c-0.1-0.2-0.3-0.3-0.4-0.5C154.4,18.2,154.4,18.2,154.3,18.2z"/>
		<path class="st0" d="M11.5,17.5c0.2,0.5,0.6,0.9,0.4,1.5c-0.3-0.3-0.5-0.6-0.8-1c-0.4,0.8-0.4,1.5-0.7,2.4
			C10.4,19.3,10.4,18.2,11.5,17.5z"/>
		<path class="st0" d="M19.1,18.3c0,0.1-0.1,0.3-0.1,0.4c0,0,0,0-0.1,0C19,18.6,19,18.4,19.1,18.3C19.1,18.3,19.1,18.3,19.1,18.3z"
			/>
	</g>
	<g>
		<path class="st0" d="M292.4,42.1c-0.1,0.1-1,0.7-1.9,1.3c0.1-0.5,0.1-1,0.2-1.5c1-1,2.2-2.3,2.3-2.5c0.4-0.5-0.3-1-0.7-0.5
			c-0.2,0.2-0.8,0.9-1.5,1.6c0-0.4,0-0.8,0-1.3c0-0.2,0-0.4,0-0.6c0.8-0.8,1.6-1.8,1.8-2c0.4-0.5,0-1-0.5-0.7
			c-0.1,0.1-0.7,0.8-1.4,1.5c0-0.5-0.1-1.1-0.1-1.6c0.7-0.8,1.5-1.6,1.7-1.8c0.4-0.4,0-1-0.4-0.6c-0.1,0.1-0.8,0.8-1.4,1.5
			c-0.1-0.5-0.2-1.1-0.3-1.6c0.7-0.8,1.6-1.8,1.7-1.9c0.3-0.4-0.3-0.7-0.6-0.3c-0.2,0.2-0.7,0.8-1.2,1.4c-0.1-0.5-0.3-1-0.4-1.4
			c0.5-0.8,1.1-1.8,1.3-2c0.3-0.4-0.2-0.8-0.5-0.5c-0.1,0.1-0.6,1-1,1.8c-0.1-0.4-0.3-0.8-0.4-1.2c0.5-0.9,1.1-2,1.2-2.2
			c0.2-0.4-0.2-0.8-0.5-0.4c-0.1,0.1-0.5,1.1-1,2c-0.2-0.5-0.5-1.1-0.7-1.6c0.4-0.7,0.9-1.5,1-1.7c0.2-0.4-0.2-0.7-0.4-0.4
			c-0.1,0.1-0.5,0.9-0.8,1.6c-0.2-0.4-0.4-0.8-0.7-1.2c0.3-0.7,0.7-1.5,0.8-1.7c0.2-0.4-0.2-0.7-0.4-0.4c0,0.1-0.4,0.9-0.6,1.6
			c-0.2-0.4-0.4-0.7-0.7-1c0.3-0.7,0.6-1.6,0.7-1.8c0.2-0.4-0.2-0.6-0.4-0.3c0,0.1-0.3,1-0.5,1.8c-0.3-0.4-0.6-0.8-0.9-1.2
			c0.2-0.7,0.4-1.5,0.5-1.7c0.1-0.4-0.3-0.6-0.4-0.2c0,0.1-0.2,1-0.3,1.7c-0.3-0.4-0.7-0.8-1-1.2c0.1-0.7,0.3-1.5,0.3-1.7
			c0.1-0.4-0.3-0.5-0.4-0.2c0,0.1-0.1,0.9-0.1,1.6c-0.4-0.4-0.8-0.8-1.2-1.1c0-0.6,0.1-1.3,0.1-1.4c0-0.4-0.4-0.5-0.4-0.1
			c0,0.1,0,0.7,0.1,1.3c-0.4-0.4-0.9-0.8-1.4-1.2c0-0.6,0-1.5,0-1.7c0-0.4-0.4-0.4-0.4-0.1c0,0.1,0.1,1.1,0.2,1.7
			c-0.5-0.4-1.1-0.8-1.6-1.2c0-0.6,0-1.5,0-1.6c-0.1-0.3-0.5-0.2-0.4,0.2c0,0.2,0.1,0.7,0.2,1.2c-0.5-0.3-0.9-0.6-1.4-0.9
			c-0.1-0.6-0.1-1.6-0.2-1.9c0-0.4-0.4-0.4-0.5-0.1c0,0.1,0.3,1.4,0.4,1.8c-0.4-0.2-0.8-0.4-1.3-0.7c-0.1-0.7-0.2-1.6-0.2-1.8
			c-0.1-0.4-0.5-0.4-0.5,0c0,0.1,0.3,1.2,0.4,1.7c-1.1-0.5-2.2-1-3.4-1.3l-0.5,0.1l0.5,0.3c1.2,0.4,2.3,0.9,3.4,1.5l0,0
			c0,0-1.8,0.4-1.9,0.5c-0.3,0.2-0.1,0.5,0.2,0.4c0.3-0.1,1.4-0.5,2-0.7c0,0,0,0,0,0l0.1,0.1c0,0,0,0,0-0.1c0.5,0.3,1,0.6,1.4,0.9
			l-0.1,0c0,0-1.8,0.4-1.9,0.4c-0.3,0.2-0.1,0.5,0.2,0.4c0.3-0.1,1.4-0.5,2-0.7c0.5,0.3,0.9,0.7,1.4,1c0,0.1,0,0.2,0,0.2l0-0.2
			c0.1,0.1,0.2,0.1,0.3,0.2c-0.5-0.1-2-0.2-2.3-0.3c-0.3,0-0.5,0.3-0.2,0.4c0.2,0,2,0,2,0L279,18c0.4,0.4,0.9,0.7,1.3,1.1l0,0
			c0,0-2-0.1-2.1-0.1c-0.3,0.1-0.2,0.5,0.1,0.4c0.3,0,1.6-0.1,2.2-0.2c0.6,0.6,1.2,1.2,1.8,1.8c-0.3,0-2.1-0.2-2.3-0.2
			c-0.3,0.1-0.2,0.5,0.1,0.4c0.3,0,1.6-0.1,2.3-0.1c0.4,0.4,0.7,0.8,1,1.2c-0.7-0.1-1.9-0.2-2-0.2c-0.3,0.1-0.3,0.5,0.1,0.5
			c0.2,0,1.3,0,2.1,0c0.3,0.4,0.6,0.8,0.8,1.2c-0.8,0-1.8,0-1.9,0c-0.4,0.1-0.2,0.5,0.2,0.5c0.2,0,1.2-0.1,1.9-0.2
			c0.3,0.5,0.6,1,0.9,1.6c-0.9,0-2.1-0.1-2.3-0.1c-0.4,0.1-0.3,0.6,0.1,0.5c0.3,0,1.5,0,2.3,0c0.3,0.6,0.6,1.2,0.8,1.8
			c-0.9-0.2-2.2-0.4-2.3-0.4c-0.4,0-0.4,0.5,0.1,0.6c0.3,0,1.6,0.2,2.5,0.3c0.2,0.6,0.5,1.2,0.7,1.8c-1-0.3-2.1-0.7-2.2-0.7
			c-0.5-0.1-0.5,0.5,0,0.6c0.3,0.1,1.5,0.4,2.5,0.7c0.2,0.5,0.3,1.1,0.4,1.6c-0.9-0.4-1.9-0.7-2-0.8c-0.5-0.1-0.6,0.5-0.1,0.7
			c0.3,0.1,1.3,0.5,2.3,0.8c0.1,0.7,0.2,1.3,0.3,2c-1-0.5-2.1-1-2.2-1.1c-0.5-0.2-0.7,0.5-0.2,0.7c0.3,0.1,1.5,0.7,2.5,1.2
			c0.1,0.7,0.1,1.5,0.1,2.2c0,0.1,0,0.1,0,0.2c-1-0.7-2-1.5-2.1-1.6c-0.5-0.3-0.9,0.3-0.3,0.7c0.3,0.2,1.5,1.1,2.5,1.9
			c0,0.7-0.1,1.4-0.2,2.1c-0.8-1-1.8-2-1.9-2.1c-0.5-0.4-1,0.2-0.5,0.7c0.3,0.3,1.4,1.6,2.2,2.6c-0.1,0.5-0.2,1-0.3,1.5
			c-0.9-0.9-1.7-1.9-1.8-2c-0.5-0.4-1,0.2-0.6,0.8c0.2,0.3,1.2,1.4,2.1,2.4c-0.2,0.6-0.4,1.3-0.6,1.9c-0.8-1.2-1.7-2.5-1.8-2.7
			c-0.4-0.5-1.1,0-0.7,0.7c0.2,0.4,1.3,1.9,2.1,3.1c-0.3,0.6-0.6,1.2-0.9,1.9c-0.6-1.3-1.3-2.7-1.4-2.9c-0.3-0.6-1.1-0.1-0.8,0.6
			c0.2,0.4,0.9,2.1,1.5,3.4c-0.4,0.7-0.8,1.3-1.2,1.9c-0.4-1.4-0.9-3.2-0.9-3.4c-0.2-0.6-1-0.3-0.8,0.4c0.1,0.5,0.6,2.5,1,3.9
			c-0.4,0.5-0.9,1.1-1.3,1.6c-0.2-1.6-0.4-3.5-0.4-3.8c-0.2-0.7-1-0.5-1,0.3c0,0.5,0.3,2.9,0.4,4.5c-0.5,0.4-0.9,0.9-1.4,1.3
			c0-1.7-0.1-3.8-0.1-4c-0.1-0.8-1-0.6-1,0.2c0,0.5,0,3.1,0,4.8c-0.6,0.5-1.2,0.9-1.9,1.3c0.1-1.8,0.2-4,0.2-4.2
			c0-0.8-1-0.7-1.1,0.1c-0.1,0.6-0.2,3-0.3,4.8c-0.7,0.4-1.5,0.8-2.3,1.1c0.5-1.8,1.1-4.3,1.1-4.6c0.1-0.8-0.9-1-1.2-0.1
			c-0.2,0.6-1,3.4-1.5,5.3c-2.4,0.9-5,1.4-7.7,1.4c-2.7-0.1-5.3-0.6-7.7-1.4c-0.5-1.8-1.3-4.7-1.5-5.3c-0.3-0.9-1.3-0.7-1.2,0.1
			c0.1,0.3,0.7,2.7,1.1,4.6c-0.8-0.3-1.5-0.7-2.3-1.1c-0.1-1.8-0.3-4.3-0.4-4.8c-0.1-0.9-1.1-1-1.1-0.1c0,0.2,0.1,2.4,0.2,4.2
			c-0.6-0.4-1.3-0.8-1.9-1.3c0-1.7,0-4.2,0-4.8c0-0.8-1-1-1-0.2c0,0.2,0,2.4-0.1,4c-0.5-0.4-1-0.8-1.4-1.3c0.2-1.6,0.4-3.9,0.4-4.5
			c0.1-0.8-0.8-1-1-0.3c0,0.2-0.2,2.2-0.4,3.8c-0.5-0.5-0.9-1-1.3-1.6c0.4-1.4,0.9-3.5,1-3.9c0.2-0.7-0.6-1-0.8-0.4
			c0,0.2-0.5,1.9-0.9,3.4c-0.4-0.6-0.8-1.3-1.2-1.9c0.6-1.3,1.4-3,1.5-3.4c0.3-0.7-0.4-1.1-0.8-0.6c-0.1,0.2-0.8,1.6-1.4,2.9
			c-0.3-0.6-0.6-1.2-0.9-1.9c0.8-1.2,1.8-2.8,2.1-3.1c0.4-0.6-0.2-1.2-0.7-0.7c-0.1,0.2-1,1.5-1.8,2.7c-0.2-0.6-0.4-1.3-0.6-1.9
			c0.9-1,1.9-2.1,2.1-2.4c0.5-0.6-0.1-1.2-0.6-0.8c-0.1,0.1-1,1.1-1.8,2c-0.1-0.5-0.2-1-0.3-1.5c0.9-1,2-2.3,2.2-2.6
			c0.4-0.5-0.1-1.1-0.5-0.7c-0.1,0.1-1,1.2-1.9,2.1c-0.1-0.7-0.1-1.4-0.2-2.1c1-0.8,2.2-1.7,2.5-1.9c0.5-0.4,0.2-1-0.4-0.7
			c-0.1,0.1-1.2,0.9-2.1,1.6c0-0.1,0-0.1,0-0.2c0-0.7,0-1.5,0.1-2.2c1-0.5,2.2-1,2.5-1.2c0.5-0.3,0.4-0.9-0.2-0.7
			c-0.1,0.1-1.2,0.6-2.2,1.1c0.1-0.7,0.2-1.3,0.3-2c0.9-0.3,2-0.7,2.3-0.8c0.5-0.2,0.4-0.8-0.1-0.7c-0.1,0-1.1,0.4-2,0.8
			c0.1-0.6,0.3-1.1,0.4-1.6c1-0.3,2.2-0.6,2.5-0.7c0.5-0.1,0.4-0.7,0-0.6c-0.1,0-1.3,0.4-2.2,0.7c0.2-0.6,0.4-1.2,0.7-1.8
			c0.9-0.1,2.2-0.3,2.5-0.3c0.5-0.1,0.5-0.6,0.1-0.6c-0.1,0-1.4,0.2-2.3,0.4c0.3-0.6,0.5-1.2,0.8-1.8c0.9,0,2,0,2.3,0
			c0.4,0,0.5-0.5,0.1-0.5c-0.1,0-1.4,0.1-2.3,0.1c0.3-0.5,0.6-1.1,0.9-1.6c0.8,0.1,1.7,0.2,1.9,0.2c0.4,0.1,0.5-0.4,0.2-0.5
			c-0.1,0-1.1,0-1.9,0c0.3-0.4,0.6-0.8,0.8-1.2c0.7,0,1.8,0,2.1,0c0.4,0,0.5-0.4,0.1-0.5c-0.1,0-1.3,0.2-2,0.2
			c0.3-0.4,0.7-0.8,1-1.2c0.6,0,2,0.1,2.3,0.1c0.4,0,0.5-0.4,0.1-0.4c-0.2,0-2,0.1-2.3,0.2c0.6-0.6,1.2-1.2,1.8-1.8
			c0.6,0.1,1.9,0.2,2.2,0.2c0.4,0,0.5-0.3,0.1-0.4c-0.2,0-2.1,0.1-2.1,0.1l0,0c0.4-0.4,0.9-0.8,1.3-1.1l0.4,0.1c0,0,1.9,0.1,2,0
			c0.3-0.1,0.2-0.5-0.2-0.4c-0.3,0-1.8,0.2-2.3,0.3c0.1-0.1,0.2-0.1,0.3-0.2l0,0.2c0,0,0-0.1,0-0.2c0.5-0.4,0.9-0.7,1.4-1
			c0.6,0.2,1.7,0.6,2,0.7c0.3,0.1,0.5-0.2,0.2-0.4c-0.2-0.1-1.9-0.4-1.9-0.4l-0.1,0c0.5-0.3,0.9-0.6,1.4-0.9c0,0.1,0,0.1,0,0.1
			l0.1-0.1c0,0,0,0,0,0c0.6,0.2,1.8,0.6,2,0.7c0.4,0.1,0.6-0.3,0.2-0.4c-0.2-0.1-1.9-0.5-1.9-0.5l0,0c1.1-0.6,2.2-1.1,3.4-1.5
			l0.5-0.3l-0.5-0.1c-1.2,0.4-2.3,0.8-3.4,1.3c0.1-0.5,0.4-1.5,0.4-1.7c0-0.3-0.4-0.3-0.5,0c0,0.2-0.2,1.1-0.2,1.8
			c-0.4,0.2-0.8,0.4-1.3,0.7c0.1-0.4,0.4-1.7,0.4-1.8c0-0.3-0.4-0.3-0.5,0.1c0,0.2-0.1,1.2-0.2,1.9c-0.5,0.3-1,0.6-1.4,0.9
			c0.1-0.5,0.2-1.1,0.2-1.2c0.1-0.3-0.3-0.5-0.4-0.2c0,0.1,0,1,0,1.6c-0.6,0.4-1.1,0.8-1.6,1.2c0.1-0.6,0.2-1.6,0.2-1.7
			c-0.1-0.3-0.4-0.2-0.4,0.1c0,0.2,0,1.1,0,1.7c-0.5,0.4-0.9,0.8-1.4,1.2c0.1-0.6,0.1-1.2,0.1-1.3c-0.1-0.3-0.5-0.2-0.4,0.1
			c0,0.2,0,0.8,0.1,1.4c-0.4,0.4-0.8,0.8-1.2,1.1c0-0.7-0.1-1.5-0.1-1.6c-0.1-0.3-0.5-0.2-0.4,0.2c0,0.2,0.2,1,0.3,1.7
			c-0.4,0.4-0.7,0.8-1,1.2c-0.1-0.7-0.3-1.6-0.3-1.7c-0.1-0.3-0.5-0.1-0.4,0.2c0.1,0.2,0.3,1,0.5,1.7c-0.3,0.4-0.6,0.8-0.9,1.2
			c-0.2-0.7-0.4-1.7-0.5-1.8c-0.2-0.3-0.6-0.1-0.4,0.3c0.1,0.2,0.4,1.1,0.7,1.8c-0.2,0.3-0.5,0.7-0.7,1c-0.3-0.7-0.6-1.5-0.6-1.6
			c-0.2-0.3-0.6,0-0.4,0.4c0.1,0.2,0.5,1,0.8,1.7c-0.2,0.4-0.5,0.8-0.7,1.2c-0.4-0.7-0.8-1.5-0.8-1.6c-0.3-0.3-0.7,0-0.4,0.4
			c0.1,0.2,0.6,1,1,1.7c-0.3,0.5-0.5,1-0.7,1.6c-0.4-0.9-0.9-1.9-1-2c-0.3-0.4-0.7,0-0.5,0.4c0.1,0.3,0.7,1.3,1.2,2.2
			c-0.2,0.4-0.3,0.8-0.4,1.2c-0.5-0.8-1-1.7-1-1.8c-0.3-0.4-0.7,0-0.5,0.5c0.2,0.2,0.8,1.2,1.3,2c-0.1,0.5-0.3,1-0.4,1.4
			c-0.5-0.6-1.1-1.3-1.2-1.4c-0.4-0.4-0.9-0.1-0.6,0.3c0.1,0.1,0.9,1.1,1.7,1.9c-0.1,0.5-0.2,1.1-0.3,1.6c-0.7-0.7-1.3-1.5-1.4-1.5
			c-0.4-0.3-0.8,0.2-0.4,0.6c0.2,0.2,1,1.1,1.7,1.8c-0.1,0.5-0.1,1.1-0.1,1.6c-0.7-0.7-1.3-1.4-1.4-1.5c-0.4-0.4-0.9,0.2-0.5,0.7
			c0.2,0.2,1.1,1.2,1.8,2c0,0.2,0,0.4,0,0.6c0,0.4,0,0.8,0,1.3c-0.7-0.7-1.3-1.4-1.5-1.6c-0.5-0.5-1.1,0-0.7,0.5
			c0.1,0.1,1.4,1.5,2.3,2.5c0,0.5,0.1,1,0.2,1.5c-0.9-0.6-1.8-1.3-1.9-1.3c-0.6-0.3-1,0.4-0.4,0.9c0.3,0.2,1.5,1,2.6,1.8
			c0.1,0.6,0.3,1.2,0.4,1.8c-1.1-0.6-2.1-1.3-2.2-1.4c-0.6-0.3-1,0.5-0.3,0.9c0.3,0.2,1.8,1.1,3,1.9c0.2,0.5,0.4,1.1,0.6,1.6
			c-1.2-0.4-2.4-0.8-2.5-0.9c-0.7-0.2-0.8,0.7-0.1,0.9c0.4,0.1,1.9,0.7,3.2,1.2c0.2,0.4,0.4,0.8,0.6,1.2c-1.3-0.1-2.8-0.1-3-0.2
			c-0.7,0-0.6,0.9,0.1,0.9c0.4,0,2,0.1,3.4,0.2c0.3,0.4,0.5,0.9,0.8,1.3c-1.4,0-3,0.1-3.2,0.1c-0.7,0.1-0.5,0.9,0.2,0.9
			c0.4,0,2.2,0,3.6,0c0.3,0.5,0.7,0.9,1.1,1.4c-1.5,0.1-3.2,0.2-3.4,0.2c-0.7,0.1-0.6,1,0.2,1c0.5,0,2.5-0.1,4.1-0.1
			c0.4,0.4,0.8,0.9,1.3,1.3c-1.6,0.2-3.4,0.3-3.6,0.4c-0.8,0.1-0.6,1.1,0.3,1c0.5,0,2.8-0.2,4.5-0.3c0.4,0.3,0.8,0.7,1.2,1
			c-1.7,0.2-3.9,0.4-4.1,0.4c-0.8,0.1-0.6,1.1,0.3,1.1c0.6,0,3.6-0.3,5.4-0.4c0.3,0.2,0.7,0.4,1,0.6c-1.7,0.3-4,0.8-4.2,0.8
			c-0.8,0.2-0.5,1.2,0.4,1.1c0.7-0.1,3.9-0.6,5.6-0.9c0.4,0.2,0.7,0.3,1.1,0.5c-1.7,0.7-4,1.5-4.2,1.6c-0.8,0.4-0.3,1.3,0.6,1
			c0.6-0.2,3.8-1.2,5.5-1.8c0.3,0.1,0.6,0.2,0.9,0.3c-1.6,0.9-3.7,2.1-3.9,2.2c-0.7,0.5-0.1,1.3,0.7,0.9c0.6-0.3,3.4-1.7,5.1-2.6
			c2,0.5,4,0.7,6.2,0.7c2.1,0,4.2-0.2,6.2-0.7c1.7,0.9,4.5,2.3,5.1,2.6c0.9,0.4,1.5-0.5,0.7-0.9c-0.2-0.1-2.3-1.3-3.9-2.2
			c0.3-0.1,0.6-0.2,0.9-0.3c1.8,0.6,4.9,1.6,5.5,1.8c0.9,0.3,1.4-0.7,0.6-1c-0.2-0.1-2.5-0.9-4.2-1.6c0.4-0.2,0.7-0.3,1.1-0.5
			c1.7,0.3,5,0.8,5.6,0.9c0.9,0.1,1.2-0.8,0.4-1.1c-0.2,0-2.5-0.5-4.2-0.8c0.3-0.2,0.7-0.4,1-0.6c1.8,0.1,4.8,0.4,5.4,0.4
			c0.9,0,1.1-0.9,0.3-1.1c-0.2,0-2.4-0.2-4.1-0.4c0.4-0.3,0.8-0.6,1.2-1c1.7,0.1,4,0.3,4.5,0.3c0.8,0,1-0.9,0.3-1
			c-0.2,0-2-0.2-3.6-0.4c0.4-0.4,0.8-0.8,1.3-1.3c1.6,0,3.6,0.1,4.1,0.1c0.8,0,0.9-0.9,0.2-1c-0.2,0-1.9-0.1-3.4-0.2
			c0.4-0.4,0.7-0.9,1.1-1.4c1.4,0,3.2,0,3.6,0c0.7,0,0.9-0.8,0.2-0.9c-0.2,0-1.8,0-3.2-0.1c0.3-0.4,0.6-0.9,0.8-1.3
			c1.4-0.1,3-0.2,3.4-0.2c0.7-0.1,0.8-0.9,0.1-0.9c-0.2,0-1.6,0.1-3,0.2c0.2-0.4,0.4-0.8,0.6-1.2c1.3-0.5,2.8-1,3.2-1.2
			c0.7-0.3,0.5-1.1-0.1-0.9c-0.2,0.1-1.3,0.5-2.5,0.9c0.2-0.5,0.4-1.1,0.6-1.6c1.2-0.8,2.6-1.7,3-1.9c0.6-0.4,0.3-1.2-0.3-0.9
			c-0.1,0.1-1.2,0.7-2.2,1.4c0.2-0.6,0.3-1.2,0.4-1.8c1.1-0.8,2.2-1.6,2.5-1.8C293.3,42.6,293,41.8,292.4,42.1z"/>
		<path class="st0" d="M287.7,16.8C281.3,10.5,272.9,7,264,7c-18.5,0-33.5,15-33.5,33.5c0,9,3.5,17.4,9.8,23.7
			C246.6,70.5,255,74,264,74c9,0,17.4-3.5,23.7-9.8c6.3-6.3,9.8-14.7,9.8-23.7C297.5,31.5,294,23.1,287.7,16.8z M264,72.4
			c-8.5,0-16.5-3.3-22.5-9.3c-6-6-9.3-14-9.3-22.5c0-8.5,3.3-16.5,9.3-22.5c6-6,14-9.3,22.5-9.3c8.5,0,16.5,3.3,22.5,9.3
			c6,6,9.3,14,9.3,22.5C295.8,58.1,281.5,72.4,264,72.4z"/>
		<path class="st0" d="M263.8,30.8c-5.8-4-9.7-3.6-11.9-2.6c4.3-0.1,8,1.5,10.8,3.4c-0.6,0.5-1.2,0.9-1.9,1.5
			c-0.1-0.3-0.4-0.6-0.7-0.6c-0.4,0-0.8,0.3-0.8,0.8c0,0.3,0.2,0.6,0.5,0.7c-0.4,0.4-0.9,0.8-1.4,1.3c-0.9,0.7-0.3,0.7-0.7-0.1
			c-0.4-0.8-1.3-0.5-1.5-0.1c-0.2,0.4,0.1,1.6,0.9,2c1,0.4,1.3-0.2,2-0.6c0.2-0.1,0.8-0.7,1.6-1.5c0.1,0.3,0.4,0.5,0.7,0.5
			c0.4,0,0.8-0.3,0.8-0.8c0-0.3-0.2-0.6-0.5-0.7c0.6-0.5,1.3-1.1,2-1.6c0.8,0.6,1.4,1.1,2,1.6c-0.3,0.1-0.5,0.4-0.5,0.7
			c0,0.4,0.3,0.8,0.8,0.8c0.3,0,0.6-0.2,0.7-0.5c0.8,0.8,1.4,1.3,1.6,1.5c0.7,0.4,1,1,2,0.6c0.8-0.3,1.1-1.5,0.9-2
			c-0.2-0.4-1.1-0.7-1.5,0.1c-0.4,0.8,0.2,0.8-0.7,0.1c-0.5-0.4-0.9-0.9-1.4-1.3c0.3-0.1,0.5-0.4,0.5-0.7c0-0.4-0.3-0.8-0.8-0.8
			c-0.4,0-0.7,0.2-0.7,0.6c-0.7-0.6-1.3-1-1.9-1.5c2.8-1.9,6.5-3.5,10.8-3.4C273.4,27.3,269.6,26.9,263.8,30.8z"/>
		<path class="st0" d="M258,15.7c0.4-0.4,1.1-0.3,1.3-0.3c0,0.1-0.6,0.5-0.6,0.6c-0.4,0.6-0.6,1.2-0.4,1.9c0,0.2,0.1,0.5,0.2,0.4
			c0.3-0.3,0.4-1,0.8-0.9c-0.1,0.9,0,1.8,0.5,2.6c0.1,0.1,0.3,0.2,0.4,0.3c0.1-0.3-0.1-0.6,0.1-0.9c0.1-0.2,0.2-0.3,0.2-0.4
			c0.1,0,0.2,0,0.2,0c0.1,0.4-0.1,0.7,0.1,1c0.2,0.3,0.2,0.8,0.6,0.9c0-0.2-0.1-0.5,0.1-0.7c0.3-0.3,0.5-0.9,0.9-0.7
			c0.7,0.4,0.2,1,0.4,1.6c0.1,0.2,0.3,0.5,0.1,0.5c0,0.9-0.1,0.9-0.1,1.8c-0.3-0.1-0.1,0.6-0.2,0.4c0.1,0.1,0.3,0.6,0.1,0.8
			c-0.1,0.1,0,0.5,0,0.6c-0.2,0.5-0.1,1-0.1,1.4c-0.3-0.1-0.6-0.1-0.7,0.3c-0.1,0.7,0.1,1.3,0.1,2c0.6,0,1.1,0,1.6,0v0h0.2
			c0.6,0,1.1,0,1.6,0c0-0.7,0.2-1.3,0.1-2c-0.1-0.4-0.4-0.4-0.7-0.3c0-0.5,0.1-1-0.1-1.4c0-0.1,0.2-0.3,0.1-0.4
			c-0.4-0.4-0.2-0.7,0.1-1c-0.1,0.2,0.1-0.5-0.2-0.5c0.1-0.9-0.1-0.8-0.1-1.7c-0.3,0-0.1-0.3,0-0.5c0.3-1-0.1-1.4,0.5-1.7
			c0.5-0.2,0.7,0.4,0.9,0.7c0.1,0.2,0.1,0.5,0.1,0.7c0.4-0.2,0.4-0.6,0.6-0.9c0.2-0.3,0.1-0.7,0.1-1c0.1,0,0.2,0,0.2,0
			c0.1,0.2,0.2,0.3,0.2,0.4c0.1,0.3,0,0.6,0.1,0.9c0.1-0.2,0.3-0.2,0.4-0.3c0.5-0.8,0.5-1.7,0.5-2.6c0.5-0.1,0.6,0.7,0.8,0.9
			c0.1,0.1,0.2-0.2,0.2-0.4c0.2-0.7,0-1.3-0.4-1.9c-0.1-0.1-0.5-0.7-0.5-0.8c0.3,0,0.8,0,1.2,0.5c0.2,0.3,0.2-1-0.3-1.4
			c-0.5-0.3-1-0.5-1.6-0.6c0-0.1,0.1-0.2,0.1-0.3c0.6-0.2,1.2,0.1,1.9,0.1c-0.1-0.5-0.7-0.7-1.2-0.8c-0.6-0.1-1.3-0.1-1.9-0.1
			c0-0.3,0.2-0.6,0.4-0.8c0.2-0.2,0.5-0.1,0.8-0.1c-0.5-0.2-1-0.1-1.5-0.1c-0.3,0.1-0.5,0.4-0.8,0.5c0-0.5-0.1-1.2,0.5-1.4
			c-0.6-0.1-1.1,0.5-1.4,1c-0.1,0-0.1,0-0.2,0c-0.1-0.1,0.1-0.2,0-0.3c-0.1-0.1-0.1-0.2-0.2-0.3c-0.2-0.2-0.1-1.2-0.4-1.3
			c-0.3,0.1-0.2,1.1-0.4,1.3c-0.1,0.1-0.1,0.3-0.2,0.3c-0.1,0.1,0.1,0.2,0,0.3c-0.1,0-0.1,0-0.2,0c-0.3-0.5-0.8-1-1.4-1
			c0.6,0.2,0.5,0.9,0.5,1.4c-0.3-0.1-0.5-0.4-0.8-0.5c-0.5,0-1-0.1-1.5,0.1c0.3,0.1,0.6-0.1,0.8,0.1c0.2,0.2,0.4,0.5,0.4,0.8
			c-0.6,0-1.3-0.1-1.9,0.1c-0.5,0.1-1.1,0.3-1.2,0.8c0.6-0.1,1.2-0.3,1.9-0.1c-0.1,0.1,0.1,0.2,0.1,0.3c-0.6,0.1-1.1,0.3-1.6,0.6
			C257.9,14.7,257.7,16,258,15.7z"/>
		<path class="st0" d="M272.4,41.1c0,0,0,0.1,0,0.1c0,0.1,0,0.1,0.1,0.1c0.1,0,0.1,0,0.1-0.1c0.1,0,0.1-0.1,0.1-0.1c0,0,0,0,0-0.1
			c0,0,0-0.1,0-0.1c-0.1,0-0.1,0-0.2,0C272.4,41,272.4,41.1,272.4,41.1z"/>
		<path class="st0" d="M268,44.6c0,0,0,0.1,0,0.2c0,0.1,0,0.2,0,0.2c0,0.1,0.1,0.1,0.1,0.1c0.1,0,0.1,0,0.3-0.1
			c0.1,0,0.1-0.1,0.2-0.1c0.1-0.1,0.1-0.1,0.2-0.1c0-0.1-0.2-0.1-0.4-0.2C268.1,44.6,268,44.6,268,44.6z"/>
		<path class="st0" d="M255.9,41.5c0,0-0.1,0-0.1,0c-0.1,0-0.2,0-0.2-0.1c0,0-0.1-0.1-0.2-0.1c-0.1,0-0.1-0.1-0.2-0.1
			c0,0.1,0.1,0.1,0.1,0.3c0.1,0.1,0.1,0.2,0.2,0.2c0,0,0.1,0,0.2-0.1C255.8,41.6,255.8,41.6,255.9,41.5z"/>
		<path class="st0" d="M263.8,43.1c-3.1,0-5.8-1.7-7.3-4.2h-5.9c1.8,5.6,7,9.6,13.2,9.6c6.1,0,11.3-4.1,13.1-9.6h-5.9
			C269.6,41.4,266.9,43.1,263.8,43.1z M270,41.6c0,0,0.1,0,0.3,0c0.2,0,0.3,0,0.3,0c0,0,0,0.1,0.1,0.2c0,0.1,0,0.2,0,0.2
			c0,0-0.1,0-0.2,0.1c-0.2,0-0.2,0-0.2,0c0,0,0-0.1-0.1-0.2C270,41.7,270,41.7,270,41.6z M260.1,43.5c0.2-0.1,0.2-0.1,0.3-0.1
			c0,0,0,0.1,0.1,0.2c0,0.1,0.1,0.2,0,0.2c0,0-0.1,0.1-0.2,0.1c-0.1,0-0.2,0.1-0.3,0c0,0,0-0.1-0.1-0.2c0-0.1,0-0.2,0-0.2
			C259.8,43.6,259.9,43.6,260.1,43.5z M256.3,40.3c0.2,0.1,0.3,0.1,0.4,0.1c0.1,0,0.1,0,0.2,0c0,0,0,0.1-0.1,0.2c0,0.1,0,0.1,0,0.1
			c0,0,0.1,0,0.2,0.1c0.1,0,0.2,0,0.2,0.1l0,0.4c-0.1,0-0.2,0-0.3-0.1c-0.1,0-0.2,0-0.2,0c0,0,0-0.1,0-0.2c0-0.1,0-0.2,0-0.2
			c-0.1,0-0.1,0-0.2-0.1c-0.1,0-0.2,0-0.2,0c0,0,0-0.1,0-0.2C256.2,40.4,256.2,40.3,256.3,40.3z M255.6,44.4c-0.1,0-0.2,0-0.2,0
			c0,0,0-0.1-0.1-0.3c0-0.1-0.1-0.2-0.1-0.2c-0.1,0-0.2,0-0.3,0c-0.1,0-0.1,0-0.1,0c0-0.1-0.1-0.2-0.1-0.3c0-0.1,0-0.2,0-0.2
			c0.2,0,0.4,0.1,0.5,0.1c0,0,0.1,0,0.1,0c0,0,0,0.1,0,0.2c0,0.1,0.1,0.2,0.1,0.2c0,0,0.1,0,0.2,0c0.1,0,0.2,0,0.2,0l0.2,0.5
			C255.9,44.4,255.8,44.4,255.6,44.4z M260.5,45.8c-0.2-0.1-0.3-0.1-0.4-0.2c-0.1-0.1-0.3-0.1-0.4-0.2c-0.1,0-0.3-0.1-0.6-0.1
			c-0.3,0-0.5,0-0.6-0.1l-0.7-0.4l0,0l-0.5-0.3c0,0,0,0,0-0.1c0,0,0-0.1,0-0.1l0.2-0.2c0,0-0.1,0-0.3,0.1c-0.1,0-0.2,0.1-0.2,0.1
			l-0.3-0.3l0,0l-0.2-0.2c-0.1-0.1-0.2-0.2-0.1-0.3c0-0.1,0.1-0.1,0.1-0.2l-0.5,0l-0.5-0.6l0,0l0,0l-0.1-0.1l0,0l-0.3-0.3
			c-0.1-0.1-0.1-0.2,0-0.3c0.1-0.1,0.2-0.1,0.3-0.2c0,0-0.1,0-0.3-0.1c-0.2,0-0.4-0.1-0.4-0.2c-0.1-0.1-0.1-0.3-0.2-0.4
			c-0.1-0.2-0.2-0.4-0.2-0.5c0.1,0,0.2,0,0.5,0c0.3,0,0.5,0.1,0.6,0.1c0.1,0,0.2,0.1,0.3,0.2c0.2,0.1,0.3,0.2,0.5,0.3c0,0,0,0,0.1,0
			c0,0,0.1,0,0.1,0c0.1,0,0.2,0,0.2,0c0.2,0,0.4,0,0.5,0c0,0-0.1,0.1-0.4,0.2c-0.2,0.1-0.4,0.3-0.7,0.4c-0.2,0.1-0.3,0.2-0.3,0.2
			c0,0,0,0.1,0,0.1c0,0,0.1,0.1,0.1,0.2l0.1,0.1l0.7,0.7c0,0,0.1,0,0.2-0.1c0.1,0,0.2-0.1,0.2-0.1c0,0,0.1,0,0.3,0
			c0.2,0,0.3,0,0.3,0c0,0,0,0,0,0c0,0,0,0-0.1,0c-0.1,0-0.1,0.1-0.2,0.1c-0.1,0-0.2,0.1-0.3,0.2c-0.1,0-0.1,0.1-0.1,0.2
			c0,0.1,0,0.1,0.1,0.2l0.1,0.1l0.5,0.3l1-1.1c0.1,0,0.2-0.1,0.3-0.1c0.2-0.1,0.4-0.1,0.4-0.1c0,0-0.2,0.2-0.6,0.7
			c-0.4,0.4-0.6,0.7-0.7,0.8c-0.1,0.1-0.1,0.1,0,0.2l0,0l0,0l0.9,0.5c0.1,0,0.2,0.1,0.3,0.1c0.1,0,0.2,0,0.2,0c0,0-0.1-0.1-0.2-0.2
			c-0.1-0.2-0.2-0.2-0.3-0.3c-0.1,0-0.2-0.1-0.2-0.1c-0.1,0-0.1,0-0.2,0c0.2-0.1,0.3-0.1,0.4-0.2c0.3-0.1,0.5-0.1,0.6-0.1
			c0.2,0.1,0.3,0.2,0.4,0.3c0.2,0.3,0.4,0.4,0.4,0.4c0.1,0.1,0.3,0.2,0.4,0.3c0.1,0.1,0.2,0.1,0.3,0.2L260.5,45.8z M262.1,44.6
			c-0.1,0.4-0.1,0.7-0.2,1c-0.1,0.2-0.2,0.4-0.3,0.6c-0.1,0.1-0.2,0.2-0.3,0.2l0.3-1.7c0,0,0.1-0.1,0.3-0.3c0.1-0.2,0.2-0.2,0.3-0.3
			C262.2,44.3,262.2,44.4,262.1,44.6z M265.5,45.3c0,0.1,0.1,0.2,0.1,0.3c0,0,0,0.1,0,0.2c0,0.1,0,0.3,0,0.4c0,0,0,0.1-0.1,0.1
			c0,0-0.1,0-0.1,0l-0.5,0.1l0,0l-0.1,0l-0.1,0l0,0l-0.5,0c-0.1,0-0.1,0-0.1-0.1c-0.1-0.1-0.1-0.2-0.1-0.2c0,0-0.1,0.1-0.1,0.2
			c-0.1,0.1-0.1,0.2-0.2,0.2l-1.2-0.1c0,0-0.1,0-0.1-0.1c0,0,0-0.1,0-0.1c0-0.1,0.1-0.2,0.1-0.2c0.1-0.2,0.1-0.3,0.2-0.4
			c0-0.1,0.1-0.1,0.1-0.2c0,0,0.1-0.1,0.1-0.1c0,0,0,0.1,0,0.1c0,0.1,0,0.1,0,0.2c0,0.1,0,0.1,0,0.1c0,0,0,0.1,0.1,0.1l1.1,0
			c0-0.1,0-0.2-0.1-0.5c-0.1-0.3-0.1-0.4-0.1-0.4c0,0,0-0.1,0.1-0.3c0.1-0.2,0.1-0.3,0.1-0.3c0,0.1,0.1,0.3,0.1,0.5
			c0,0.1,0.1,0.2,0.1,0.3c0.1,0.3,0.1,0.4,0.2,0.5c0,0.1,0.1,0.1,0.1,0.1l0.2,0l0.5-0.1c0,0,0,0,0-0.1c0-0.1-0.1-0.3-0.2-0.6
			c-0.1-0.2-0.1-0.3-0.2-0.5c0,0-0.1,0-0.1-0.1c-0.1,0-0.1-0.1-0.1-0.1c0-0.1,0.1-0.3,0.1-0.4c0.1-0.2,0.1-0.3,0.1-0.3
			c0,0,0,0,0,0.1c0,0.1,0.1,0.1,0.1,0.1c0.1,0.1,0.2,0.1,0.3,0.1c0.2,0.1,0.3,0.1,0.3,0.1l-0.3,0.6C265.3,45,265.4,45.1,265.5,45.3z
			 M266.7,46.2l-0.8-1.5c0,0,0-0.2,0-0.4c0-0.2,0-0.3,0.1-0.3c0.1,0.2,0.2,0.3,0.2,0.4c0.2,0.3,0.3,0.6,0.4,0.9
			c0.1,0.2,0.1,0.4,0.1,0.6C266.8,46,266.8,46.1,266.7,46.2z M267.5,43.8c0,0,0,0.1,0,0.1c-0.1,0-0.2,0-0.3,0c-0.1,0-0.2,0-0.2-0.1
			c0-0.1,0-0.2,0.1-0.3c0,0,0-0.1,0-0.1c0,0,0.1,0,0.2,0.1c0.1,0,0.2,0,0.2,0c0,0,0-0.1,0-0.1c0-0.1,0-0.1,0-0.2l0.5,0
			c0,0.1,0,0.2,0,0.3c0,0.1,0,0.1,0,0.2c0,0-0.1,0-0.2,0c-0.2,0-0.3,0-0.3,0C267.5,43.7,267.5,43.7,267.5,43.8z M269,45.1
			c0,0-0.1,0.1-0.2,0.2c-0.1,0.1-0.2,0.2-0.3,0.2c-0.2,0.1-0.3,0.1-0.4,0.1c-0.2,0-0.3,0-0.3-0.1c-0.1-0.1-0.1-0.2-0.1-0.4
			c0-0.1,0-0.2,0-0.5c0-0.1,0-0.2,0-0.3c0,0,0-0.2,0.1-0.3c0.1,0,0.2,0,0.2,0c0.2,0,0.3,0,0.4,0.1c0.1,0,0.2,0,0.2,0.1
			c0.1,0,0.1,0.1,0.2,0.1c0,0,0,0,0,0.1c0,0,0,0,0,0.1c0,0.2,0.1,0.3,0.1,0.4C269.1,44.9,269.1,45,269,45.1z M270.6,45.3
			c-0.1,0.1-0.4,0.2-0.8,0.3c-0.4,0.1-0.6,0.1-0.6,0c0,0,0,0,0,0c0.1,0,0.2-0.1,0.3-0.1c0.1,0,0.2-0.1,0.3-0.1
			c0.1,0,0.1-0.1,0.2-0.2c0.1-0.1,0.2-0.3,0.2-0.4c0-0.1,0.1-0.1,0.1-0.3c0-0.2,0-0.3,0-0.3c-0.1,0-0.2-0.1-0.5-0.1
			c-0.1,0-0.2,0-0.4,0c0-0.1-0.1-0.2-0.1-0.2c-0.1-0.1-0.1-0.2-0.1-0.3c0.3,0,0.5,0.1,0.5,0.1c0.3,0,0.5,0.1,0.7,0.3
			c0.1,0.1,0.2,0.2,0.2,0.3c0.1,0.1,0.2,0.3,0.2,0.6C270.9,45,270.7,45.2,270.6,45.3z M269.7,42.9c0,0-0.1-0.1-0.2-0.3
			c-0.1-0.2-0.1-0.3-0.1-0.3c0.2,0.1,0.4,0.2,0.5,0.2c0.4,0.2,0.7,0.4,0.9,0.5c0.2,0.1,0.3,0.3,0.4,0.4c0,0.1,0.1,0.2,0.1,0.3
			L269.7,42.9z M273.5,41.3c-0.1-0.2-0.2-0.4-0.4-0.4c0,0-0.1,0-0.1,0c0.1,0.1,0.2,0.2,0.2,0.2c0,0.1,0,0.2-0.1,0.3
			c-0.1,0.1-0.2,0.2-0.4,0.2c-0.1,0-0.2,0-0.4-0.1c-0.1-0.1-0.3-0.2-0.4-0.3c-0.2-0.2-0.2-0.3-0.2-0.4c0.1-0.1,0.2-0.1,0.5-0.2
			c0.3-0.1,0.5-0.1,0.7,0c0.3,0.1,0.6,0.2,0.9,0.4c0.3,0.3,0.3,0.5,0.2,0.8c-0.1,0.2-0.3,0.4-0.5,0.7c-0.3,0.3-0.4,0.4-0.5,0.4
			c0,0.2,0,0.3-0.1,0.4c-0.1,0.1-0.3,0.3-0.7,0.5c-0.4,0.2-0.6,0.2-0.6,0.2c0,0,0-0.1,0-0.1c0.1-0.1,0.2-0.1,0.3-0.2
			c0.1-0.1,0.2-0.1,0.3-0.2c0.1-0.1,0.2-0.3,0.2-0.7c0-0.3-0.1-0.5-0.2-0.5c-0.1,0-0.2,0-0.5,0c-0.1,0-0.2,0-0.4,0.1
			c-0.1-0.1-0.1-0.1-0.2-0.2c-0.1-0.1-0.2-0.2-0.2-0.2c0.3-0.1,0.5-0.1,0.5-0.1c0.3,0,0.5,0,0.8,0.1c0.1,0,0.2,0.1,0.3,0.2
			c0.2,0.1,0.3,0.3,0.4,0.5c0,0.1,0.1,0.1,0.1,0.2c0,0,0.1-0.1,0.2-0.3c0.2-0.2,0.2-0.4,0.3-0.5C273.6,41.7,273.6,41.5,273.5,41.3z"
			/>
		<path class="st0" d="M246.7,41.2c0.1,0,0.1,0,0.2-0.1c0,0,0,0-0.1-0.1c-0.1,0-0.1-0.1-0.2-0.1c0,0-0.1-0.1-0.1-0.1
			c0,0-0.1-0.1-0.1-0.1c0,0.1,0,0.1,0,0.2c0,0.1,0,0.2,0.1,0.2C246.5,41.3,246.6,41.3,246.7,41.2z"/>
		<path class="st0" d="M259.7,52.5c0,0-0.1,0-0.2,0.1c-0.1,0-0.1,0-0.1,0.1c0,0,0.1,0.1,0.2,0.1c0.1,0,0.2,0.1,0.2,0.1
			c0,0,0-0.1,0-0.3c0-0.1,0-0.1,0-0.2c0,0,0,0-0.1,0.1C259.7,52.4,259.7,52.4,259.7,52.5z"/>
		<path class="st0" d="M249.3,46.4c-0.1,0-0.1,0.1-0.1,0.2c0,0.1,0,0.1,0.1,0.2c0,0,0.1,0.1,0.1,0.1c0.1-0.1,0.1-0.1,0.1-0.2
			c0-0.1,0-0.1,0-0.2c0,0-0.1,0-0.2,0C249.4,46.4,249.4,46.4,249.3,46.4z"/>
		<path class="st0" d="M248.5,38.9h-5.7c1.9,9.8,10.6,17.2,21,17.2c10.3,0,19-7.4,20.9-17.2H279c-1.8,6.7-8,11.6-15.3,11.6
			C256.5,50.4,250.4,45.6,248.5,38.9z M259.4,50.8c0.1,0,0.1-0.1,0.1-0.1c0,0,0.1,0.1,0.1,0.2c0.1,0.1,0.1,0.1,0.1,0.1
			c0,0,0.1,0,0.1-0.1c0.1-0.1,0.1-0.1,0.1-0.1l0.3,0.3c-0.1,0.1-0.1,0.1-0.2,0.2c-0.1,0.1-0.1,0.1-0.1,0.1c0,0-0.1-0.1-0.1-0.2
			c-0.1-0.1-0.1-0.2-0.1-0.2c0,0-0.1,0.1-0.1,0.1c-0.1,0-0.1,0.1-0.1,0.1c0,0-0.1-0.1-0.2-0.2c-0.1-0.1-0.1-0.1-0.1-0.2
			C259.2,50.9,259.3,50.9,259.4,50.8z M247.6,40.1c0-0.1,0.1-0.1,0.1-0.1c0.1,0.1,0.2,0.1,0.3,0.1c0.1,0,0.1,0.1,0.1,0.1
			c0,0-0.1,0.1-0.1,0.2c0,0.1-0.1,0.1,0,0.2c0,0,0.1,0,0.2,0.1c0.1,0,0.1,0.1,0.2,0.1l-0.1,0.4c-0.1,0-0.2-0.1-0.3-0.1
			c-0.1,0-0.1-0.1-0.1-0.1c0,0,0-0.1,0.1-0.2c0-0.1,0.1-0.2,0.1-0.2c0,0-0.1-0.1-0.1-0.1c-0.1,0-0.1-0.1-0.1-0.1
			C247.5,40.3,247.5,40.2,247.6,40.1z M246.4,44.7c-0.1,0-0.2,0-0.3-0.1c-0.1,0-0.2-0.1-0.2-0.1c0,0,0-0.1,0-0.2c0-0.1,0-0.2,0-0.2
			c0,0-0.1,0-0.2-0.1c-0.1,0-0.1-0.1-0.2-0.1c0-0.1,0-0.1,0-0.2c0-0.1,0-0.2,0-0.2c0.2,0,0.3,0.1,0.3,0.1c0.1,0,0.1,0,0.1,0.1
			c0,0,0,0.1-0.1,0.2c0,0.1,0,0.2,0,0.2c0,0,0,0,0.1,0c0.2,0.1,0.2,0.1,0.2,0.1L246.4,44.7z M246.5,43.4L246.5,43.4L246.5,43.4
			L246.5,43.4L246.5,43.4l-0.3-0.6l0,0l-0.2-0.5l0,0l-0.2-0.4c0-0.1,0-0.2,0.1-0.3c0.1-0.1,0.2-0.1,0.3-0.1c0,0-0.1-0.1-0.2-0.1
			c-0.2,0-0.3-0.1-0.3-0.2c0-0.1,0-0.2,0-0.4c0-0.2,0-0.4,0-0.4c0.1,0,0.2,0,0.5,0.1c0.2,0,0.4,0.1,0.5,0.2c0.1,0,0.1,0.1,0.3,0.2
			c0.1,0.1,0.3,0.2,0.4,0.3c0,0,0.1,0,0.1,0c0,0,0.1,0,0.1,0c0.1,0,0.1,0,0.2,0.1c0.2,0,0.3,0.1,0.5,0.1c0,0-0.2,0.1-0.4,0.1
			c-0.2,0.1-0.5,0.2-0.7,0.2c-0.2,0.1-0.4,0.1-0.4,0.1c0,0-0.1,0.1-0.1,0.1c0,0,0,0.1,0.1,0.2l0,0l0.2,0.6l0,0l0.3,0.6l0.5,1
			c0.1,0,0.1-0.1,0.2-0.2c0.1-0.1,0.2-0.2,0.2-0.3c0.1,0,0.2,0,0.3,0c0.1,0,0.2,0,0.3,0c-0.1,0.1-0.1,0.2-0.2,0.2
			c-0.1,0.2-0.3,0.3-0.4,0.3c0,0-0.1,0.1-0.2,0.1c-0.1,0-0.1,0-0.3,0.1c0,0,0,0-0.1,0c0,0-0.1,0-0.2,0.1c-0.1,0-0.2,0.1-0.3,0.1
			L246.5,43.4z M247.6,44.9c0.1,0,0.2-0.1,0.3-0.1l0.5,0.8c0.1,0,0.1-0.1,0.2-0.2c0.1-0.1,0.1-0.2,0.1-0.3c0,0,0-0.1,0-0.2
			c0,0,0-0.1,0-0.1l0.7-0.1c0,0,0,0.1,0,0.2c0,0.1-0.1,0.2-0.1,0.3c-0.1,0.1-0.1,0.2-0.2,0.3c-0.1,0.1-0.2,0.2-0.3,0.2
			c0,0,0,0-0.1,0s-0.1,0-0.1,0.1c-0.1,0.1-0.3,0.1-0.4,0.2c-0.2,0-0.3,0-0.3,0l-0.6-1C247.4,45,247.5,45,247.6,44.9z M257.1,51.7
			c0,0.1-0.1,0.2-0.1,0.3c0,0-0.1,0.1-0.1,0.2c-0.1,0.1-0.2,0.2-0.3,0.3c0,0-0.1,0-0.1,0c0,0-0.1,0-0.1,0l-0.5-0.2l0,0l-0.5-0.2l0,0
			l0,0l0,0l0,0l-0.5-0.2l0,0l-0.4-0.2l0-0.2l-0.2,0.1l-0.6-0.3c0,0,0,0,0,0c0,0,0-0.1,0-0.1c0,0,0,0-0.1,0c0,0-0.1,0-0.1,0l-0.6-0.4
			c0,0,0-0.1,0-0.1c0,0,0,0,0-0.1c0,0-0.1,0-0.1,0c0,0-0.1,0-0.1,0l-0.3-0.2l0,0l-0.5-0.3l0,0l-0.5-0.4l0,0l-0.5-0.4l0.1-0.3
			c-0.1,0-0.1,0-0.2,0.1c-0.1,0-0.1,0-0.2,0l-0.6-0.6l0,0l-0.4-0.4l0,0l0,0l0,0l0,0l-0.3-0.4l0,0l-0.3-0.3c-0.2,0.1-0.5,0.1-0.8,0
			c-0.3,0-0.5-0.1-0.6-0.3c-0.1-0.1-0.2-0.3-0.2-0.5c-0.1-0.2,0-0.4,0-0.4c0,0,0,0,0.1,0c0,0.1,0.1,0.1,0.1,0.2
			c0,0.1,0.1,0.1,0.1,0.2c0,0,0.1,0.1,0.1,0.1c0,0,0.1,0.1,0.2,0.1c0.1,0.1,0.3,0.1,0.4,0.2c0.1,0,0.3,0.1,0.4,0.1
			c-0.1-0.1-0.1-0.2-0.2-0.2c-0.1-0.2-0.1-0.4,0.1-0.5c0.1-0.1,0.3-0.1,0.6-0.2c0.4-0.1,0.6,0,0.7,0.1c0.1,0.1,0,0.2-0.1,0.4
			c-0.1,0.2-0.3,0.3-0.4,0.5l0.1,0.1l0.5,0.5l0.4,0.4l0,0l0.5,0.5c0-0.1,0-0.1,0-0.2c0-0.1,0-0.2-0.1-0.2c0,0-0.1,0-0.1-0.1
			c0,0,0,0-0.1,0c0,0,0.1,0,0.2-0.1c0.1,0,0.3-0.1,0.4-0.1c0,0,0.1,0,0.1,0c0.1,0,0.3,0.1,0.4,0.2c0.1,0.1,0.2,0.3,0.2,0.4
			c0,0.1-0.1,0.2-0.1,0.3c0,0-0.1,0.1-0.2,0.1c-0.1,0-0.2,0.1-0.2,0.1l0.2,0.1l0,0l0.5,0.4l0,0l0.6,0.4l0,0l0.4,0.2c0,0,0.1,0,0.1,0
			c0,0,0.1,0,0.1-0.1c0.1-0.1,0.2-0.1,0.3-0.1c0.2-0.1,0.3-0.1,0.3-0.1c-0.1,0.1-0.2,0.2-0.4,0.3c-0.1,0-0.1,0.1-0.2,0.2l0.5,0.3
			c0,0,0.1,0,0.1,0c0,0,0.1,0,0.1-0.1c0,0,0,0,0-0.1c0.2-0.1,0.3-0.2,0.4-0.2c0.1,0,0.1,0,0.2,0c0,0,0,0.1-0.1,0.1
			c0,0-0.1,0.1-0.1,0.2c0,0-0.1,0.1-0.2,0.2c0,0,0,0-0.1,0.1l0.3,0.2c0,0,0,0,0,0c0,0,0-0.1,0.1-0.1c0-0.1,0-0.1,0.1-0.1
			c0.1-0.1,0.2-0.1,0.3-0.2c0.1-0.1,0.2-0.1,0.2-0.1L255,51c0,0.1,0,0.1,0,0.2c0,0.1,0,0.1,0,0.1l0.1,0l0.6,0.3l0.6,0.3l0,0l0.4,0.2
			c0,0,0,0,0-0.1c0-0.1,0.1-0.3,0.2-0.6c0.1-0.2,0.1-0.3,0.2-0.5c0,0,0-0.1,0-0.1c0-0.1,0-0.1,0-0.1c0.1-0.1,0.2-0.2,0.3-0.3
			c0.2-0.1,0.3-0.2,0.3-0.2c0,0,0,0,0,0.1c0,0.1,0,0.1,0,0.2c0,0.1,0.1,0.2,0.1,0.2c0.1,0.2,0.1,0.2,0.2,0.2l-0.5,0.4
			C257.3,51.3,257.2,51.5,257.1,51.7z M258.4,51.2c-0.1,0.4-0.2,0.7-0.3,1c-0.1,0.2-0.2,0.4-0.3,0.6c-0.1,0.1-0.2,0.2-0.3,0.2
			l0.5-1.7c0,0,0.1-0.1,0.3-0.3c0.1-0.1,0.2-0.2,0.3-0.3C258.5,51,258.4,51.1,258.4,51.2z M262.9,54.9c-0.1,0.1-0.1,0.1-0.1,0.1
			c0,0-0.1,0-0.2-0.1c-0.1-0.1-0.2-0.1-0.2-0.1c-0.1,0-0.1,0.1-0.2,0.1c0,0-0.1,0.1-0.1,0.1c-0.1,0-0.1-0.1-0.2-0.1
			c-0.1-0.1-0.1-0.1-0.2-0.2c0.1-0.1,0.2-0.2,0.3-0.3c0,0,0,0,0.1-0.1c0,0,0.1,0.1,0.2,0.2c0.1,0.1,0.1,0.1,0.2,0.1
			c0,0,0.1,0,0.1-0.1c0.1-0.1,0.1-0.1,0.1-0.1l0.4,0.3C263,54.7,262.9,54.8,262.9,54.9z M265.4,54.9c-0.1,0.1-0.2,0.2-0.2,0.2
			c0,0-0.1,0-0.2-0.1c-0.1-0.1-0.2-0.2-0.2-0.2c0,0,0.1-0.1,0.2-0.2c0.1-0.1,0.2-0.2,0.2-0.2c0,0,0.1,0.1,0.2,0.2
			c0.1,0.1,0.2,0.2,0.2,0.2C265.5,54.7,265.5,54.8,265.4,54.9z M280.3,40.1c0.4,0,0.8,0,1.1,0c0.2,0,0.4,0.1,0.6,0.1
			c0.1,0,0.2,0.1,0.3,0.2l-1.9,0c0,0-0.1-0.1-0.3-0.2c-0.2-0.1-0.2-0.2-0.3-0.2C280,40.1,280.2,40.1,280.3,40.1z M274,49
			c0.2,0.2,0.4,0.4,0.6,0.5c0.2,0.2,0.3,0.3,0.3,0.3c0.1,0,0.1,0,0.2,0c0,0,0.1-0.1,0.2-0.1l0,0l0.5-0.4h0l0.5-0.4l0,0l0.6-0.6
			l-1.2,0c-0.1-0.1-0.1-0.2-0.2-0.3c-0.1-0.1-0.2-0.2-0.3-0.4l0.6-1.1l0.4,0.4c-0.1,0.1-0.1,0.2-0.1,0.3c-0.2,0.4-0.3,0.6-0.4,0.6
			l1.7,0l0.1-0.1l0.4-0.5v0l0.4-0.5h0l0.3-0.4l-1.5-0.6c-0.1-0.1-0.1-0.2-0.1-0.2c-0.1-0.2-0.2-0.3-0.2-0.3c0,0,0.3,0.1,0.9,0.3
			c0.6,0.2,0.9,0.4,1,0.4c0.1,0,0.2,0,0.2,0l0,0l0.4-0.6l0,0l0.3-0.5l0,0l0.2-0.3c0,0,0-0.1-0.1-0.1c-0.1-0.1-0.2-0.1-0.2-0.2
			c-0.1-0.1-0.1-0.2-0.1-0.4c0-0.2,0-0.3,0-0.3c0-0.1,0.1-0.1,0.1-0.1c0,0,0.1,0,0.1,0c0,0,0,0,0.1,0c0,0,0.1,0,0.1,0
			c0.1,0,0.2,0,0.4,0c0.2,0,0.2-0.1,0.3-0.1l0,0l0.3-0.6h0l0.2-0.6l0,0l0.2-0.5c0,0,0,0-0.1,0c-0.1,0-0.3,0-0.7,0
			c-0.2,0-0.4,0-0.6,0c0,0-0.1,0-0.1,0c-0.1,0-0.1,0-0.1,0c-0.1-0.1-0.2-0.1-0.3-0.2c-0.2-0.1-0.2-0.2-0.2-0.2c0.1,0,0.1,0,0.2,0
			c0.1,0,0.1,0,0.1,0c0.1-0.1,0.2-0.2,0.3-0.2c0.1-0.1,0.2-0.1,0.2-0.2c0.1,0.1,0.1,0.1,0.2,0.2c0.1,0.1,0.2,0.2,0.2,0.2
			c0,0,0.2,0,0.4,0c0.1,0,0.2,0,0.3,0c0.1,0,0.2-0.1,0.3-0.2c0.1-0.1,0.2-0.2,0.3-0.2c0.1,0,0.2,0,0.3,0.1c0.1,0,0.1,0.1,0.2,0.1
			c0,0-0.1,0-0.1,0.1c-0.1,0-0.1,0-0.1,0.1c0,0-0.1,0.1-0.1,0.1c0,0,0,0.1-0.1,0.1c0,0,0,0,0,0.1c0,0,0,0.1,0,0.1l-0.2,0.4l0,0
			l-0.2,0.6l0,0l-0.3,0.6l0,0l-0.2,0.3c0,0,0,0.1,0.1,0.1c0.1,0,0.1,0.1,0.1,0.1l-1,0.7c0,0,0,0.1,0.1,0.1c0.1,0.1,0.1,0.1,0,0.2
			l-0.1,0.2l0,0l-0.3,0.5l0,0l-0.3,0.5l0,0l-0.3,0.4c0,0,0,0-0.1,0c0,0-0.1,0-0.1,0l-0.3-0.1c0,0,0.1,0.1,0.1,0.2
			c0.1,0.1,0.1,0.2,0.1,0.2l-0.2,0.2l0,0l-0.4,0.5l0,0l-0.4,0.5l0,0l-0.3,0.3c0,0-0.1,0-0.2,0c-0.2,0-0.4,0-0.4,0c0,0,0,0.1,0.1,0.2
			c0,0.1,0.1,0.2,0.1,0.2l-0.6,0.6l0,0l-0.5,0.4l0,0l-0.5,0.4l0,0l-0.4,0.3c-0.1,0.1-0.2,0.1-0.4,0c-0.1-0.1-0.2-0.1-0.3-0.2
			c0,0,0,0.1,0,0.2c0.1,0.2,0.1,0.3,0,0.3c-0.1,0-0.2,0.1-0.4,0.2c-0.2,0.1-0.4,0.1-0.4,0.2c0-0.1-0.1-0.2-0.2-0.4
			c-0.1-0.2-0.1-0.4-0.1-0.5c0-0.1,0-0.1,0.1-0.3c0-0.1,0.1-0.3,0.2-0.4c0,0,0,0-0.1-0.1c0,0-0.1,0-0.1-0.1c0-0.1,0-0.1,0-0.2
			c0-0.2-0.1-0.3-0.1-0.4C273.6,48.7,273.8,48.8,274,49z M272.6,49.1c0-0.1,0-0.1,0-0.1c0,0,0.1,0,0.2,0c0.1,0,0.2,0,0.2,0
			c0,0,0-0.1,0-0.1c0-0.1,0-0.1,0-0.2l0.5,0c0,0.1,0,0.2,0,0.3c0,0.1,0,0.1,0,0.1c0,0-0.1,0-0.2,0c-0.1,0-0.2,0-0.2,0
			c0,0,0,0.1,0,0.1c0,0.1,0,0.1,0,0.1c-0.1,0-0.1,0-0.3,0c-0.1,0-0.2,0-0.2,0C272.6,49.2,272.6,49.1,272.6,49.1z M272.3,50
			c0.3,0.3,0.5,0.6,0.7,0.9c0.1,0.2,0.2,0.4,0.3,0.6c0,0.1,0,0.2,0,0.3l-1.2-1.4c0,0-0.1-0.2-0.1-0.4c0-0.2,0-0.3-0.1-0.4
			C272.1,49.8,272.2,49.9,272.3,50z M266.2,54.4c0.1-0.1,0.2-0.2,0.3-0.3c0.1-0.1,0.1-0.1,0.2-0.2c0.1-0.2,0.2-0.3,0.2-0.4
			c0-0.1-0.1-0.1-0.2-0.3c-0.1-0.1-0.1-0.1-0.2-0.2c0-0.1,0.1-0.2,0.1-0.3c0-0.1,0.1-0.2,0.1-0.2c0.1,0.1,0.2,0.2,0.3,0.4
			c0.2,0.2,0.3,0.2,0.5,0.2l0,0l0.6-0.1l0.7-0.2l0,0l0.7-0.2c0,0-0.1-0.1-0.2-0.1c-0.1,0-0.2,0-0.3,0c0,0-0.1,0-0.1,0c0,0,0,0-0.1,0
			c0,0,0-0.1,0-0.2c0-0.1,0-0.3,0-0.3c0,0,0,0,0.1-0.1c0.1-0.1,0.2-0.2,0.3-0.2c0.2-0.1,0.3,0,0.5,0.1c0.1,0.1,0.2,0.2,0.3,0.3
			c0,0.1,0,0.1,0,0.2c0,0.1,0,0.2,0,0.2l0.2-0.1l0,0l0.6-0.2l0,0l0.6-0.3l0,0l0.4-0.2c0,0,0,0,0-0.1c-0.1-0.1-0.2-0.3-0.4-0.6
			c-0.1-0.1-0.2-0.3-0.4-0.5c0,0-0.1,0-0.1,0c-0.1,0-0.1,0-0.1,0c0-0.1,0-0.3,0-0.4c0-0.2,0-0.3,0-0.3c0,0,0,0,0.1,0.1
			c0.1,0.1,0.1,0.1,0.1,0.1c0.1,0,0.2,0.1,0.3,0.1c0.2,0,0.3,0,0.3,0l0,0.6c0,0,0.1,0.1,0.2,0.4c0,0.1,0.1,0.2,0.2,0.3
			c0,0,0.1,0.1,0.1,0.2c0,0.1,0.1,0.3,0.1,0.4c0,0,0,0.1,0,0.1c0,0-0.1,0-0.1,0.1l-0.5,0.2l0,0l-0.5,0.2l0,0l-0.6,0.2l0,0l-0.6,0.2
			l-0.3-0.2c0,0.1,0,0.1,0,0.2c0,0.1,0,0.1,0,0.2l-0.8,0.2l0,0l-0.5,0.1l0,0l-0.6,0.1l0,0l-0.3,0.1c0,0-0.1,0-0.1,0
			c-0.1,0-0.1,0-0.2,0c0,0.2-0.1,0.4-0.2,0.6c-0.1,0.3-0.3,0.5-0.5,0.5c-0.1,0-0.4,0-0.7-0.2c-0.3-0.1-0.5-0.2-0.5-0.3c0,0,0,0,0,0
			c0.1,0,0.2,0.1,0.2,0.1c0.1,0,0.2,0.1,0.3,0C266.1,54.5,266.1,54.4,266.2,54.4z M263.8,53.4l0.7,0v0l0.9-0.1
			c0-0.1-0.1-0.2-0.1-0.2c-0.1-0.2-0.2-0.3-0.3-0.4l0.2-0.6c0,0,0.1,0.1,0.2,0.2c0.1,0.1,0.2,0.3,0.2,0.4c0,0,0,0.1,0,0.1
			c0,0,0,0.1,0,0.2c0,0.1,0,0.1,0,0.1c0,0,0,0.1,0,0.1c0,0.1,0,0.2,0,0.4c0,0.1,0,0.2,0,0.3l-1.2,0.1l0,0h0v0l-0.1,0v0l-0.6,0v0
			l-0.6,0v0l-0.3,0c-0.1,0-0.2-0.1-0.3-0.2c0,0,0-0.1-0.1-0.2l-0.2,0.4l-0.7-0.1l0,0l-0.6-0.1l0,0l0,0l-0.1,0l0,0l-0.5-0.1l0,0
			l-0.5-0.1c-0.1,0-0.2-0.1-0.2-0.3c0-0.1,0-0.3,0-0.4c0,0-0.1,0.1-0.2,0.2c-0.1,0.2-0.2,0.2-0.3,0.2c-0.1-0.1-0.2-0.1-0.4-0.2
			c-0.2-0.1-0.3-0.2-0.4-0.2c0-0.1,0.1-0.2,0.2-0.4c0.1-0.2,0.2-0.3,0.3-0.4c0,0,0.1-0.1,0.3-0.1c0.1-0.1,0.3-0.1,0.5-0.2
			c0,0,0-0.1,0-0.1c0,0,0-0.1,0-0.1c0.1-0.1,0.1-0.1,0.1-0.1c0.1-0.1,0.2-0.2,0.3-0.3c0,0,0,0.2,0,0.4c0,0.3,0,0.5-0.1,0.8
			c0,0.3,0,0.4,0,0.4c0,0,0,0.1,0.1,0.1c0,0,0.1,0,0.2,0.1l0,0l0.7,0.1l0.5,0.1l0,0l0.9,0.1c0,0,0-0.1,0-0.2c0-0.1,0-0.2,0-0.3
			c0,0,0.1-0.1,0.2-0.2c0.1-0.1,0.2-0.2,0.2-0.2c0,0,0,0,0,0c0,0,0,0.1,0,0.1c0,0.1,0,0.2,0,0.2c0,0.1,0,0.2,0,0.3
			c0,0.1,0,0.1,0.1,0.2c0.1,0.1,0.1,0.1,0.2,0.1l0,0L263.8,53.4L263.8,53.4z"/>
		<path class="st0" d="M274.6,49.9c0,0-0.1-0.1-0.2-0.2c0,0-0.1-0.1-0.2-0.2c0,0,0,0,0,0.1c0,0.1,0,0.1,0,0.2c0,0,0,0.1,0,0.2
			c0,0,0,0.1,0,0.1c0.1,0,0.1-0.1,0.2-0.1C274.5,50,274.5,50,274.6,49.9z"/>
		<path class="st0" d="M280,43.9c0.1,0,0.1-0.1,0.1-0.1c0.1,0,0.1-0.1,0.1-0.1c0,0-0.1,0-0.2,0c-0.1,0-0.1,0-0.1,0
			c-0.1,0.1-0.1,0.2,0,0.2L280,43.9z"/>
	</g>
</g>
</svg>
